<?xml version="1.0" encoding="utf-8"?>
<!-- Generator: Adobe Illustrator 16.0.0, SVG Export Plug-In . SVG Version: 6.00 Build 0)  -->
<!DOCTYPE svg PUBLIC "-//W3C//DTD SVG 1.1//EN" "http://www.w3.org/Graphics/SVG/1.1/DTD/svg11.dtd">
<svg version="1.1" xmlns="http://www.w3.org/2000/svg" xmlns:xlink="http://www.w3.org/1999/xlink" x="0px" y="0px" width="200px"
	 height="200px" viewBox="0 0 200 200" enable-background="new 0 0 200 200" xml:space="preserve">
<g id="bg" display="none">
	<rect display="inline" fill="#231F20" width="200" height="200"/>
</g>
<g id="trans-airports">
</g>
<g id="trans-ferry">
</g>
<g id="trans-ports">
</g>
<g id="acc-media-hotel-cluster" display="none">
	<g display="inline">
		<path fill="#FFFFFF" d="M69.398,36.926v52.78h61.016v-52.78h16.471v126.148h-16.471v-59.144H69.398v59.144H53.115V36.926H69.398z"
			/>
	</g>
</g>
<g id="acc-medal-village" display="none">
	<g display="inline">
		<path fill="#FFFFFF" d="M148.071,70.061H51.929c-3.162,0-5.711,2.57-5.711,5.723v77.021c0,3.174,2.549,5.711,5.711,5.711h36.869
			v-15.717c0-6.271,5.107-11.334,11.379-11.334c6.303,0,11.367,5.062,11.367,11.334v15.717h36.527c3.141,0,5.711-2.537,5.711-5.711
			V75.783C153.782,72.631,151.212,70.061,148.071,70.061"/>
		<path fill="#FFFFFF" d="M140.065,64.832v-5.83c0-3.164-3.262-5.734-7.336-5.734H67.261c-4.053,0-7.326,2.57-7.326,5.734v5.83
			H140.065"/>
		<path fill="#FFFFFF" d="M124.722,48.041v-5.822c0-3.15-2.559-5.699-5.699-5.699H80.978c-3.162,0-5.699,2.549-5.699,5.699v5.822
			H124.722"/>
	</g>
</g>
<g id="acc-media-tent" display="none">
	<path display="inline" fill="#FFFFFF" d="M147.893,85.517l27.135-36.938c3.389-4.612,2.414-11.109-2.215-14.49
		c-4.596-3.396-11.092-2.389-14.473,2.215l-22.014,29.94c0.133-1.198-0.355-2.408-1.402-3.127c-0.289-0.206-0.611-0.33-0.934-0.421
		l17.521-23.97l3.25,2.38l4.818-6.604l-3.24-2.38l-2.604-1.885l-27.607,37.782l2.588,1.9l0.1-0.148
		c0.23,0.363,0.545,0.71,0.916,0.959c0.93,0.627,2.064,0.705,3.057,0.321l-1.609,2.191c-1.762,2.388-2.33,5.29-1.836,8.001
		l-1.973,2.685l-8.896-24.444H23.38L61.858,165.15h95.078l-23.924-65.726l7.119-9.692C143.115,89.558,145.992,88.104,147.893,85.517
		z M152.389,161.969H64.086L27.927,62.667h88.317l8.861,24.344L87.05,138.797c-2.24,3.049-1.596,7.355,1.463,9.596
		c3.066,2.23,7.34,1.588,9.597-1.455l32.636-44.43L152.389,161.969z"/>
</g>
<g id="acc-referees-village" display="none">
	<path display="inline" fill="#FFFFFF" d="M77.586,64.802v10.041l-15.199-0.016v-9.639C44.548,68.696,31.09,84.407,31.09,103.268
		c0,21.428,17.385,38.807,38.806,38.807c21.361,0,38.69-17.27,38.813-38.615l59.119-4.778V69.174L77.586,64.802"/>
</g>
<g id="acc-ceremonies">
	<path fill="#FFFFFF" d="M178.714,150.263h-72.918v-10.36c2.167-1.602,3.563-4.164,3.563-7.039v-24.338
		c1.836-2.109,2.957-4.842,2.957-7.835V85.999c8.831-0.758,14.919-2.385,14.919-4.278c0-2.607-11.695-4.746-26.089-4.746
		c-1.376,0-2.727,0.02-4.046,0.057c-1.11-2.307-0.458-8.657,0.294-9.489c0.66-0.735-1.781-0.788,9.046,3.913
		c10.82,4.709,18.568-9.143,18.872-9.923c0.291-0.772,8.594-11.815-1.18-20.238c-9.647-8.267-7.087-15.018-9.343-13.658
		c-2.201,1.337-6.295,9.636-6.556,10.168c0.058-0.23-0.106-1.536-5.143-8.617c-5.898-8.251-14.811-7.33-14.811-7.33
		c9.707,10.212,4.947,23.722,1.353,27.131c-5.458,5.154-11.766,19.112,2.804,28.258c-10.127,0.655-17.376,2.418-17.376,4.473
		c0,1.782,5.488,3.335,13.569,4.137v14.833c0,3.08,1.174,5.912,3.135,7.992v24.182c0,2.875,1.388,5.438,3.534,7.039v10.36H20.547
		c-1.626,0-2.944,1.318-2.944,2.944s1.318,2.944,2.944,2.944H95.3v17.509c0,2.918,2.354,5.273,5.258,5.273
		c2.905,0,5.238-2.355,5.238-5.273v-17.509h72.918c1.626,0,2.944-1.318,2.944-2.944S180.34,150.263,178.714,150.263z"/>
</g>
<g id="acc-olympic-village" display="none">
	<path display="inline" fill="#FFFFFF" d="M99.952,52.552c-3.003,0-3.896,1.064-5.176,1.93c0,0-62.203,45.024-63.718,46.252
		c-1.516,1.215-1.218,2.822,0.946,3.67c2.156,0.855,3.761,1.307,5.745,1.307c1.046,0,9.622,0.117,9.622,0.117v30.857h0.072v18.496
		c0,3.004,2.425,5.429,5.419,5.429h27.522c2.984,0,5.419-2.425,5.419-5.429v-18.496c0-9.693,14.148-12.163,14.148-12.163
		s14.148,2.47,14.148,12.163v18.496c0,3.004,2.426,5.429,5.42,5.429h27.513c3.003,0,5.428-2.425,5.428-5.429v-18.496h0.072v-30.857
		c0,0,8.604-0.117,9.621-0.117c1.984,0,3.59-0.451,5.746-1.307c2.164-0.848,2.461-2.455,0.946-3.67
		c-1.515-1.228-63.719-46.252-63.719-46.252C103.848,53.617,102.955,52.571,99.952,52.552"/>
	<polyline display="inline" fill="#FFFFFF" points="100.205,32.687 100.205,48.17 148.359,42.173 100.205,32.687 	"/>
</g>
<g id="acc-IBC" display="none">
	<g display="inline">
		<path fill="none" d="M99.054,87.253c-4.19,0-7.611,2.369-7.803,5.331h15.598C106.657,89.623,103.239,87.253,99.054,87.253z"/>
		<path fill="none" d="M99.054,137.914c3.693,0,6.789-1.846,7.6-4.314H91.446C92.258,136.068,95.356,137.914,99.054,137.914z"/>
		<rect x="91.232" y="95.533" fill="none" width="15.635" height="4.679"/>
		<rect x="91.232" y="110.778" fill="none" width="15.635" height="4.672"/>
		<rect x="91.232" y="126.014" fill="none" width="15.635" height="4.639"/>
		<rect x="91.232" y="103.16" fill="none" width="15.635" height="4.671"/>
		<rect x="91.232" y="118.397" fill="none" width="15.635" height="4.669"/>
		<path fill="none" d="M98.675,67.304h-46.44c-4.496,0-8.154,3.658-8.154,8.153v72.681c0,4.501,3.658,8.162,8.154,8.162H96.84
			v-8.839H65.936c-6.306,0-11.427-5.122-11.427-11.436V87.58c0-6.324,5.121-11.445,11.427-11.445h65.323
			c6.307,0,11.438,5.121,11.438,11.445v48.445c0,6.313-5.131,11.436-11.438,11.436h-30.046v8.839h45.542
			c4.506,0,8.171-3.661,8.171-8.162V75.457c0-4.496-3.665-8.153-8.171-8.153H99.964c-0.207,0.064-0.422,0.107-0.645,0.107
			S98.882,67.368,98.675,67.304z"/>
		<path fill="#FFFFFF" d="M99.319,67.411c0.223,0,0.438-0.043,0.645-0.107h-1.289C98.882,67.368,99.097,67.411,99.319,67.411z"/>
		<path fill="#FFFFFF" d="M149.483,64.944h-46.156l25.949-43.227c0.65-1.084,0.301-2.491-0.785-3.141
			c-1.08-0.65-2.489-0.3-3.141,0.784L99.808,61.908L74.258,19.36c-0.65-1.084-2.058-1.434-3.141-0.784
			c-1.084,0.65-1.436,2.057-0.784,3.141l25.956,43.227h-45.79c-6.688,0-12.129,5.44-12.129,12.128v76.112
			c0,6.693,5.441,12.138,12.129,12.138h46.712v4.865c-13.005,0.265-23.196,2.758-23.196,5.756c0,3.209,11.407,5.807,25.486,5.807
			c14.068,0,25.477-2.598,25.477-5.807c0-2.998-10.191-5.491-23.188-5.756v-4.865h47.693c6.697,0,12.146-5.444,12.146-12.138V77.072
			C161.63,70.385,156.181,64.944,149.483,64.944z M99.529,142.479c-3.872,0-7.116-1.933-7.967-4.518h15.926
			C106.64,140.546,103.397,142.479,99.529,142.479z M107.712,98.096v4.9H91.338v-4.9H107.712z M91.357,95.008
			c0.201-3.102,3.784-5.583,8.172-5.583c4.384,0,7.963,2.481,8.163,5.583H91.357z M107.712,106.084v4.891H91.338v-4.891H107.712z
			 M107.712,114.062v4.892H91.338v-4.892H107.712z M107.712,122.041v4.889H91.338v-4.889H107.712z M107.712,130.016v4.858H91.338
			v-4.858H107.712z M158.04,153.185c0,4.714-3.838,8.548-8.557,8.548H101.79v-9.256h31.466c6.604,0,11.978-5.363,11.978-11.976
			V89.767c0-6.623-5.373-11.985-11.978-11.985H64.847c-6.604,0-11.966,5.363-11.966,11.985v50.734
			c0,6.612,5.362,11.976,11.966,11.976h32.364v9.256H50.499c-4.709,0-8.539-3.834-8.539-8.548V77.072
			c0-4.708,3.83-8.538,8.539-8.538h48.634h1.35h49.001c4.719,0,8.557,3.83,8.557,8.538V153.185z"/>
	</g>
</g>
<g id="acc-athletes-village-sat" display="none">
</g>
<g id="acc-athletes-village-main" display="none">
</g>
<g id="acc-all" display="none">
</g>
<g id="sport-wrestling-greco-roman" display="none">
	<g display="inline">
		<path fill="#FFFFFF" d="M76.144,66.234l7.947-11.782l2.985-5.139c2.097-3.042,0.445-7.122-3.301-9.589
			c-3.748-2.468-7.485-2.199-9.526-0.148c-0.352,0.352-2.688,3.635-3.94,5.471L61.97,57.726c-0.965,1.549-1.901,2.634-3.07,5.037
			c-0.209,0.42-0.375,0.826-0.498,1.222c-0.358,0.447-0.661,0.948-0.884,1.504c-1.307,3.2,0.399,6.9,3.767,8.245l35.457,14.265
			c2.17,0.881,4.961-1.011,6.26-4.211c1.289-3.2-1.113-5.648-2.291-6.983C99.962,75.962,86.133,70.272,76.144,66.234z"/>
		<path fill="#FFFFFF" d="M91.346,91.98c-0.213-0.146-0.432-0.288-0.669-0.42c-4.49-2.477-19.051-9.691-19.051-9.691l-3.506-1.818
			c-3.293-1.772-9.571,0.259-12.002,4.962c-2.43,4.729,0.232,10.165,2.485,12.094c0.399,0.334,1.754,1.122,3.748,2.198l15.479,7.735
			c0.856,0.368,1.718,0.648,2.576,0.862l-12.853,39.965c-1.196,3.748,1.104,7.856,5.128,9.146c4.063,1.307,8.311-0.688,9.517-4.442
			c0,0,14.737-45.354,15.851-49.342C99.15,99.25,95.405,93.298,91.346,91.98z"/>
		<path fill="#FFFFFF" d="M50.729,89.521l-0.036-3.396c0.055-3.219-3.979-7.197-8.533-7.169c-4.536,0.047-7.597,4.247-8.152,6.743
			c-0.084,0.426-0.148,1.771-0.167,3.719l0.13,16.731c0.056,1.346,0.158,5.574,0.259,5.88c0.069,0.222,0.175,0.461,0.31,0.709
			L17.71,138.25c-1.649,2.504-0.51,6.177,2.542,8.189c3.042,2.03,6.873,1.613,8.523-0.9l20.468-31.004
			c1.065-0.965,1.705-2.069,1.671-3.07l-0.046-5.621L50.729,89.521z"/>
		<path fill="#FFFFFF" d="M191.252,141.774l-16.815-25.504c0.133-0.244,0.237-0.479,0.306-0.697c0.111-0.325,0.203-4.545,0.26-5.89
			l0.139-16.741c-0.008-1.938-0.064-3.293-0.166-3.719c-0.566-2.496-3.617-6.696-8.172-6.733c-4.535-0.038-8.561,3.94-8.523,7.159
			l-0.027,3.404l-0.129,16.314l-0.049,5.621c-0.037,0.991,0.59,2.084,1.64,3.041l20.481,31.052c1.65,2.505,5.48,2.903,8.523,0.891
			C191.789,147.951,192.922,144.287,191.252,141.774z"/>
		<path fill="#FFFFFF" d="M141.715,83.538l-3.273,2.198c0,0-13.645,8.811-17.818,11.797c-0.225,0.161-0.43,0.33-0.627,0.501
			c-3.86,1.776-6.917,8.099-5.363,11.917c1.549,3.84,21.369,47.228,21.369,47.228c1.633,3.589,6.084,5.082,9.951,3.32
			c3.877-1.744,5.695-6.084,4.072-9.674l-17.32-38.228c0.825-0.309,1.646-0.684,2.453-1.144l14.486-9.461
			c1.863-1.298,3.127-2.226,3.469-2.587c2.021-2.198,4.053-7.893,1.104-12.317C151.277,82.685,144.785,81.396,141.715,83.538z"/>
		<path fill="#FFFFFF" d="M116.246,93.889l31.619-21.489c2.994-2.041,3.867-6.011,1.928-8.867c-0.338-0.498-0.743-0.925-1.192-1.287
			c-0.202-0.357-0.446-0.715-0.735-1.078c-1.68-2.088-2.793-2.969-4.082-4.285l-10.834-10.592c-1.613-1.53-4.6-4.229-5.008-4.518
			c-2.43-1.576-6.139-1.029-9.283,2.17c-3.125,3.209-3.877,7.55-1.225,10.073l4.045,4.378l10.269,9.836
			c-8.902,6.068-21.207,14.568-21.761,15.558c-0.863,1.549-2.699,4.442-0.76,7.3C111.164,93.943,114.316,95.178,116.246,93.889z"/>
		<path fill="#FFFFFF" d="M95.406,43.935l2.912,1.614c4.471,2.458,10.053,0.918,12.448-3.46l2.781-5.064
			c2.402-4.387,0.725-9.915-3.746-12.354l-2.941-1.613c-4.469-2.458-10.034-0.909-12.437,3.46l-2.782,5.063
			C89.238,35.949,90.917,41.495,95.406,43.935z"/>
		<path fill="#FFFFFF" d="M111.654,68.55l2.764-5.063c2.402-4.378,0.725-9.896-3.746-12.354l-2.922-1.613
			c-4.469-2.458-10.044-0.909-12.456,3.459l-2.772,5.063c-2.394,4.36-0.715,9.915,3.756,12.354l2.921,1.613
			C103.67,74.467,109.254,72.927,111.654,68.55z"/>
	</g>
</g>
<g id="sport-wrestling-freestyle" display="none">
	<g display="inline">
		<path fill="#FFFFFF" d="M76.144,66.234l7.947-11.782l2.985-5.139c2.097-3.042,0.445-7.122-3.301-9.589
			c-3.748-2.468-7.485-2.199-9.526-0.148c-0.352,0.352-2.688,3.635-3.94,5.471L61.97,57.726c-0.965,1.549-1.901,2.634-3.07,5.037
			c-0.209,0.42-0.375,0.826-0.498,1.222c-0.358,0.447-0.661,0.948-0.884,1.504c-1.307,3.2,0.399,6.9,3.767,8.245l35.457,14.265
			c2.17,0.881,4.961-1.011,6.26-4.211c1.289-3.2-1.113-5.648-2.291-6.983C99.962,75.962,86.133,70.272,76.144,66.234z"/>
		<path fill="#FFFFFF" d="M91.346,91.98c-0.213-0.146-0.432-0.288-0.669-0.42c-4.49-2.477-19.051-9.691-19.051-9.691l-3.506-1.818
			c-3.293-1.772-9.571,0.259-12.002,4.962c-2.43,4.729,0.232,10.165,2.485,12.094c0.399,0.334,1.754,1.122,3.748,2.198l15.479,7.735
			c0.856,0.368,1.718,0.648,2.576,0.862l-12.853,39.965c-1.196,3.748,1.104,7.856,5.128,9.146c4.063,1.307,8.311-0.688,9.517-4.442
			c0,0,14.737-45.354,15.851-49.342C99.15,99.25,95.405,93.298,91.346,91.98z"/>
		<path fill="#FFFFFF" d="M50.729,89.521l-0.036-3.396c0.055-3.219-3.979-7.197-8.533-7.169c-4.536,0.047-7.597,4.247-8.152,6.743
			c-0.084,0.426-0.148,1.771-0.167,3.719l0.13,16.731c0.056,1.346,0.158,5.574,0.259,5.88c0.069,0.222,0.175,0.461,0.31,0.709
			L17.71,138.25c-1.649,2.504-0.51,6.177,2.542,8.189c3.042,2.03,6.873,1.613,8.523-0.9l20.468-31.004
			c1.065-0.965,1.705-2.069,1.671-3.07l-0.046-5.621L50.729,89.521z"/>
		<path fill="#FFFFFF" d="M191.252,141.774l-16.815-25.504c0.133-0.244,0.237-0.479,0.306-0.697c0.111-0.325,0.203-4.545,0.26-5.89
			l0.139-16.741c-0.008-1.938-0.064-3.293-0.166-3.719c-0.566-2.496-3.617-6.696-8.172-6.733c-4.535-0.038-8.561,3.94-8.523,7.159
			l-0.027,3.404l-0.129,16.314l-0.049,5.621c-0.037,0.991,0.59,2.084,1.64,3.041l20.481,31.052c1.65,2.505,5.48,2.903,8.523,0.891
			C191.789,147.951,192.922,144.287,191.252,141.774z"/>
		<path fill="#FFFFFF" d="M141.715,83.538l-3.273,2.198c0,0-13.645,8.811-17.818,11.797c-0.225,0.161-0.43,0.33-0.627,0.501
			c-3.86,1.776-6.917,8.099-5.363,11.917c1.549,3.84,21.369,47.228,21.369,47.228c1.633,3.589,6.084,5.082,9.951,3.32
			c3.877-1.744,5.695-6.084,4.072-9.674l-17.32-38.228c0.825-0.309,1.646-0.684,2.453-1.144l14.486-9.461
			c1.863-1.298,3.127-2.226,3.469-2.587c2.021-2.198,4.053-7.893,1.104-12.317C151.277,82.685,144.785,81.396,141.715,83.538z"/>
		<path fill="#FFFFFF" d="M116.246,93.889l31.619-21.489c2.994-2.041,3.867-6.011,1.928-8.867c-0.338-0.498-0.743-0.925-1.192-1.287
			c-0.202-0.357-0.446-0.715-0.735-1.078c-1.68-2.088-2.793-2.969-4.082-4.285l-10.834-10.592c-1.613-1.53-4.6-4.229-5.008-4.518
			c-2.43-1.576-6.139-1.029-9.283,2.17c-3.125,3.209-3.877,7.55-1.225,10.073l4.045,4.378l10.269,9.836
			c-8.902,6.068-21.207,14.568-21.761,15.558c-0.863,1.549-2.699,4.442-0.76,7.3C111.164,93.943,114.316,95.178,116.246,93.889z"/>
		<path fill="#FFFFFF" d="M95.406,43.935l2.912,1.614c4.471,2.458,10.053,0.918,12.448-3.46l2.781-5.064
			c2.402-4.387,0.725-9.915-3.746-12.354l-2.941-1.613c-4.469-2.458-10.034-0.909-12.437,3.46l-2.782,5.063
			C89.238,35.949,90.917,41.495,95.406,43.935z"/>
		<path fill="#FFFFFF" d="M111.654,68.55l2.764-5.063c2.402-4.378,0.725-9.896-3.746-12.354l-2.922-1.613
			c-4.469-2.458-10.044-0.909-12.456,3.459l-2.772,5.063c-2.394,4.36-0.715,9.915,3.756,12.354l2.921,1.613
			C103.67,74.467,109.254,72.927,111.654,68.55z"/>
	</g>
</g>
<g id="sport-weightlifting" display="none">
	<g display="inline">
		<path fill="#FFFFFF" d="M97.992,56.759h3.066c4.666,0,8.475-3.691,8.475-8.271v-5.271c0-4.582-3.809-8.297-8.475-8.297h-3.066
			c-4.691,0-8.49,3.715-8.49,8.271v5.297C89.502,53.067,93.301,56.759,97.992,56.759z"/>
		<path fill="#FFFFFF" d="M165.174,107.38l-23.732-29.243c0.156-1.807-0.373-3.69-1.646-5.263l-14.197-17.469
			c-2.312-2.859-6.885-3.186-10.23-0.748c-3.33,2.43-4.17,6.732-1.842,9.592l14.189,17.484c1.27,1.567,3.052,2.526,4.933,2.837
			l20.301,24.989h-31.706l0.178-24.682c0.016-3.691-4.068-6.852-9.113-7.07c-5.043-0.219-9.146,2.58-9.17,6.262l-0.193,25.49h-6.289
			l0.185-24.682c0.025-3.691-4.061-6.852-9.121-7.07c-5.035-0.219-9.121,2.58-9.146,6.262l-0.184,25.49h-32.32l20.311-24.992
			c1.876-0.313,3.658-1.271,4.931-2.834l14.182-17.484c2.318-2.859,1.496-7.162-1.834-9.592c-3.354-2.438-7.943-2.111-10.256,0.748
			l-14.18,17.469c-1.278,1.567-1.806,3.445-1.65,5.247L33.826,107.38c-0.561,0.688-0.977,1.429-1.27,2.18H11.668v4.84h20.968
			c0.302,0.578,0.71,1.096,1.258,1.496c2.254,1.646,5.786,0.973,8.191-1.496h37.035c0.427,0.972,1.029,1.858,1.763,2.631
			l-0.067,19.143c-0.016,3.807,2.959,6.992,6.633,7.162c3.666,0.168,6.65-2.791,6.666-6.574l0.071-19.252
			c0.88-0.871,1.565-1.925,1.982-3.109h7.512c0.433,0.98,1.042,1.875,1.786,2.652l-0.07,19.121
			c-0.025,3.807,2.951,6.992,6.617,7.162c3.682,0.168,6.656-2.791,6.682-6.574l0.066-19.249c0.885-0.871,1.573-1.926,1.993-3.112
			h36.176c2.402,2.469,5.913,3.142,8.177,1.496c0.553-0.402,0.976-0.915,1.28-1.496h22.146v-4.84h-22.07
			C166.167,108.809,165.741,108.068,165.174,107.38z"/>
		<rect y="77.687" fill="#FFFFFF" width="10.5" height="68.98"/>
		<rect x="189.667" y="77.687" fill="#FFFFFF" width="10.5" height="68.98"/>
	</g>
</g>
<g id="sport-water-polo" display="none">
	<g display="inline">
		<path fill="#FFFFFF" d="M183.671,126.368c-0.715-2.837-3.589-4.56-6.432-3.844l-26.62,6.704c0.279-0.898,0.329-1.881,0.082-2.86
			c-0.715-2.837-3.587-4.56-6.432-3.844l-24.405,6.146c0.196-0.81,0.207-1.676-0.011-2.539c-0.715-2.838-3.6-4.558-6.432-3.844
			l-24.966,6.288c-0.002-0.418-0.048-0.842-0.155-1.266c-0.714-2.837-3.595-4.558-6.432-3.844l-24.985,6.292
			c0.852-1.216,1.195-2.78,0.803-4.333c-0.715-2.838-3.592-4.559-6.432-3.844l-31.789,8.008c-2.837,0.715-4.558,3.595-3.843,6.432
			c0.605,2.403,2.764,4.006,5.134,4.006c0.428,0,0.864-0.053,1.298-0.162l24.984-6.294c-0.852,1.217-1.194,2.779-0.803,4.333
			c0.605,2.403,2.763,4.006,5.134,4.006c0.428,0,0.864-0.053,1.298-0.162l24.966-6.287c0.002,0.418,0.048,0.842,0.155,1.266
			c0.605,2.403,2.763,4.006,5.134,4.006c0.428,0,0.864-0.053,1.298-0.162l24.404-6.146c-0.196,0.809-0.207,1.675,0.011,2.538
			c0.605,2.403,2.764,4.006,5.134,4.006c0.428,0,0.863-0.053,1.298-0.162l26.62-6.704c-0.279,0.898-0.329,1.881-0.082,2.86
			c0.605,2.403,2.764,4.006,5.134,4.006c0.428,0,0.863-0.053,1.298-0.162l31.79-8.006
			C182.665,132.085,184.386,129.206,183.671,126.368z"/>
		<path fill="#FFFFFF" d="M85.94,66.74l0.001,6.173c-0.001,5.338,4.432,9.663,9.898,9.663h3.577c5.466,0,9.898-4.325,9.898-9.663
			V66.74c0-5.337-4.431-9.662-9.898-9.662H95.84C90.373,57.078,85.94,61.403,85.94,66.74z"/>
		<path fill="#FFFFFF" d="M102.248,96.567c-0.715,3.886,1.904,7.624,5.848,8.35l24.697,4.536c0.264,0.093,0.538,0.154,0.824,0.169
			l0.135,0.007l0.271,0.05c0.587,0.108,1.171,0.117,1.74,0.052l32.82,1.659c3.213,0.165,5.938-2.033,6.083-4.903
			c0.146-2.873-2.345-5.331-5.559-5.496l-27.831-1.406c-0.815-2.034-2.504-3.58-4.669-3.977l-25.924-4.763
			C106.735,90.116,102.963,92.681,102.248,96.567z"/>
		<path fill="#FFFFFF" d="M42.307,85.844c0.451,0.303,0.943,0.554,1.481,0.728l25.09,8.095c3.814,1.228,7.893-0.821,9.104-4.58
			c1.213-3.765-0.896-7.809-4.712-9.04l-21.822-7.037l6.882-23.987c0.886-3.091-0.635-6.241-3.4-7.034
			c-2.763-0.795-5.724,1.071-6.612,4.164l-9.654,33.654C38.099,82.778,39.72,84.973,42.307,85.844z"/>
		<circle fill="#FFFFFF" cx="81.471" cy="30.534" r="12.244"/>
	</g>
</g>
<g id="sport-volleyball" display="none">
	<g display="inline">
		<path fill="#FFFFFF" d="M37.003,43.79c3.366,3.365,8.891,3.298,12.338-0.15l2.255-2.255c3.449-3.449,3.515-8.972,0.149-12.339
			l-3.894-3.893c-3.365-3.366-8.889-3.299-12.339,0.149l-2.254,2.255c-3.448,3.448-3.517,8.972-0.149,12.339L37.003,43.79z"/>
		<path fill="#FFFFFF" d="M62.888,129.215c0.504-1.818,0.321-3.847-0.688-5.695l-11.224-20.584
			c-1.834-3.365-6.468-4.578-10.351-2.706c-3.884,1.871-5.544,6.115-3.709,9.48l11.223,20.584c1.008,1.849,2.652,3.173,4.516,3.85
			l18.779,34.441c1.889,3.467,5.712,5.172,8.538,3.812c2.824-1.361,3.582-5.275,1.693-8.739L62.888,129.215z"/>
		<path fill="#FFFFFF" d="M91.588,129.214c0.503-1.818,0.319-3.846-0.688-5.694l-11.224-20.584
			c-1.835-3.365-6.469-4.578-10.352-2.706c-3.883,1.871-5.544,6.115-3.709,9.48l11.224,20.584c1.007,1.849,2.651,3.172,4.515,3.85
			l18.78,34.441c1.889,3.467,5.711,5.172,8.537,3.812c2.824-1.361,3.583-5.275,1.694-8.739L91.588,129.214z"/>
		<path fill="#FFFFFF" d="M44.639,59.146c1.385,4.056,5.515,6.315,9.227,5.049l24.396-8.328c0.003-0.001,0.006-0.002,0.009-0.004
			l25.368-8.66c2.978-1.016,4.575-4.233,3.567-7.185c-1.005-2.951-4.237-4.52-7.216-3.502l-20.047,6.843
			c-1.803-2.032-4.369-2.971-6.694-2.177l-24.397,8.328C45.14,50.777,43.254,55.091,44.639,59.146z"/>
		<path fill="#FFFFFF" d="M179.284,67.984H96.146l13.979-7.732c2.755-1.524,3.763-4.973,2.253-7.7
			c-1.509-2.729-4.966-3.706-7.72-2.184L86.122,60.623c-2.131-1.685-4.822-2.159-6.971-0.97l-15.063,8.331H22.062
			c-1.392,0-2.521,1.128-2.521,2.521s1.128,2.521,2.521,2.521h33.291c-2.423,2.211-3.014,6.081-1.216,9.331
			c2.075,3.75,6.537,5.252,9.969,3.354l22.558-12.479c0.001,0,0.002-0.001,0.003-0.002l0.369-0.204h92.25
			c1.392,0,2.521-1.128,2.521-2.521S180.676,67.984,179.284,67.984z"/>
		<circle fill="#FFFFFF" cx="124.143" cy="37.401" r="11.48"/>
	</g>
</g>
<g id="sport-triathlon" display="none">
	<g display="inline">
		<path fill="#FFFFFF" d="M166.107,53.724c-2.154-2.495-6.176-2.553-8.961-0.157l-17.186,14.895l-7.344-10.005
			c-2.053-2.835-6.498-3.075-9.928-0.57c-3.416,2.519-4.535,6.828-2.496,9.64c0,0,8.098,12.193,10.801,15.027
			c0.24,0.252,0.486,0.473,0.732,0.68c0.041,0.049,0.07,0.101,0.113,0.149c2.154,2.502,5.238,3.358,6.879,1.955l26.244-22.752
			C167.748,60.172,168.254,56.194,166.107,53.724z"/>
		<path fill="#FFFFFF" d="M145.973,122.083c-0.01-0.06-0.031-0.115-0.045-0.174c0.779-2.483,0.516-5.155-0.982-7.302l-16.123-23.243
			c-2.744-3.946-8.521-4.65-12.949-1.583c-4.4,3.043-5.768,8.736-3.008,12.691l16.113,23.216c0.621,0.897,1.406,1.62,2.293,2.178
			l6.701,38.299c0.705,3.896,4.658,6.474,8.871,5.745c4.209-0.755,7.068-4.494,6.381-8.422L145.973,122.083z"/>
		<path fill="#FFFFFF" d="M63.512,100.366c3.018,0.671,5.877-0.604,6.398-2.835l5.136-22.69l0.99-0.271l16.445-4.468l3.557-0.986
			c3.406-0.837,6.499-6.142,5.231-10.859c-1.293-4.69-6.557-6.697-9.334-6.589c-0.472,0.024-1.913,0.339-3.979,0.854l-16.876,4.609
			c-1.352,0.414-2.288,0.72-2.544,0.903c-1.304,0.882-2.884,3.654-2.785,7.162l-6.773,29.841
			C58.472,97.291,60.502,99.687,63.512,100.366z"/>
		<path fill="#FFFFFF" d="M122.73,42.881v-5.826c0-5.015-4.178-9.095-9.326-9.095h-3.348c-5.164,0-9.333,4.08-9.333,9.095v5.826
			c0,5.016,4.169,9.102,9.333,9.102h3.348C118.553,51.982,122.73,47.896,122.73,42.881z"/>
		<path fill="#FFFFFF" d="M95.185,89.101c-5.371-0.023-9.74,3.881-9.74,8.663l-0.043,24.767l-29.109,7.213
			c-3.879,0.962-6.167,5.106-5.14,9.227c1.029,4.151,4.982,6.763,8.845,5.801l40.823-10.111c1.669-0.406,2.755-2.274,2.982-4.71
			c0.654-1.165,1.035-2.476,1.039-3.87l0.051-28.266C104.893,93.006,100.547,89.101,95.185,89.101z"/>
		<path fill="#FFFFFF" d="M30.538,29.41c-5.396,0-9.79,4.394-9.79,9.773c0,5.413,4.395,9.807,9.79,9.807
			c5.421,0,9.79-4.394,9.79-9.807C40.328,33.804,35.958,29.41,30.538,29.41z"/>
		<path fill="#FFFFFF" d="M30.538,55.53c-5.396,0-9.79,4.353-9.79,9.757c0,5.412,4.395,9.807,9.79,9.807
			c5.421,0,9.79-4.395,9.79-9.807C40.328,59.883,35.958,55.53,30.538,55.53z"/>
		<path fill="#FFFFFF" d="M30.538,81.31c-5.396,0-9.79,4.36-9.79,9.773c0,5.403,4.395,9.772,9.79,9.772
			c5.421,0,9.79-4.369,9.79-9.772C40.328,85.67,35.958,81.31,30.538,81.31z"/>
	</g>
</g>
<g id="sport-trampoline" display="none">
	<g display="inline">
		<path fill="#FFFFFF" d="M141.012,18.597l-16.973,20.937c-2.902-0.578-6.254,0.842-6.981,1.739l-13.821,17.088
			c-2.583,3.186-1.746,8.133,1.857,11.055c3.631,2.943,8.658,2.749,11.24-0.437l15.746-19.423c0.158-0.195,0.24-0.441,0.266-0.721
			l18.229-22.486c2.401-2.961,2.195-7.088-0.442-9.227C147.488,14.979,143.412,15.635,141.012,18.597z"/>
		<path fill="#FFFFFF" d="M82.881,59.029c0,0-12.133-12.121-15.659-15.099c-1.666-1.416-4.224-1.312-6.48-0.804L43.704,25.734
			c-2.671-2.717-6.796-2.994-9.224-0.618c-2.438,2.373-2.246,6.507,0.423,9.222l19.533,19.921c0.254,0.902,0.575,1.587,0.884,1.88
			L71.264,71.25c2.961,2.82,7.978,2.379,11.189-1.002C85.662,66.869,85.855,61.861,82.881,59.029z"/>
		<path fill="#FFFFFF" d="M98.838,91.16c-3.586,4.424-2.162,10.605-0.311,13.055c0.317,0.414,1.537,1.509,3.311,3l14.941,12.113
			c1.246,0.955,2.133,1.57,2.482,1.695c0.808,0.275,2.108,0.285,3.604-0.078l34.55,28.008c3.179,2.576,8.014,1.889,10.777-1.52
			c2.798-3.451,2.453-8.303-0.727-10.879l-34.251-27.768c0.222-1.992-0.147-3.635-1.095-4.354l-16.679-13.521l-3.172-2.571
			C109.322,85.843,102.447,86.709,98.838,91.16z"/>
		<path fill="#FFFFFF" d="M74.188,92.619c-0.415,0.316-1.493,1.519-3.007,3.293l-12.113,14.941
			c-0.934,1.246-1.566,2.156-1.683,2.492c-0.275,0.811-0.287,2.115,0.076,3.615l-21.159,26.1c-2.221,2.74-1.248,7.205,2.178,9.984
			c3.428,2.777,8,2.807,10.221,0.066l20.926-25.812c1.988,0.219,3.629-0.15,4.344-1.098l13.525-16.684l2.567-3.168
			c2.503-2.943,1.624-9.84-2.809-13.432C82.817,89.32,76.643,90.762,74.188,92.619z"/>
		<path fill="#FFFFFF" d="M103.641,40.278c-0.009-5.189-4.322-9.381-9.635-9.371l-3.471,0.008c-5.328,0.012-9.625,4.219-9.615,9.41
			l0.012,6.007c0.011,5.181,4.326,9.381,9.653,9.371l3.471-0.009c5.312-0.01,9.609-4.228,9.597-9.408L103.641,40.278z"/>
	</g>
	<rect y="182" display="inline" fill="#FFFFFF" width="200" height="5.666"/>
</g>
<g id="sport-tennis" display="none">
	<g display="inline">
		<path fill="#FFFFFF" d="M96.525,48.562l3.023,1.304c4.628,1.989,9.929-0.005,11.846-4.456l2.216-5.151
			c1.915-4.45-0.282-9.672-4.907-11.664l-3.026-1.301c-4.625-1.99-9.93,0.003-11.844,4.454l-2.216,5.149
			C89.7,41.349,91.901,46.572,96.525,48.562z"/>
		<path fill="#FFFFFF" d="M58.077,59.929c2.054,1.085,17.428,2.783,17.428,2.783l4.005,0.333c3.3,0.598,7.501-2.282,8.187-6.563
			c1.048-6.516-5.386-8.771-5.592-8.852c-0.422-0.164-1.798-0.447-3.787-0.803c0,0-15.393-2.541-17.348-2.268
			c-0.87,0.12-2.427,0.488-3.949,1.233L31.715,42.21c-3.802-0.535-7.255,1.663-7.712,4.912c-0.46,3.251,2.251,6.319,6.052,6.855
			l25.212,3.557C56.228,58.66,57.284,59.508,58.077,59.929z"/>
		<path fill="#FFFFFF" d="M97.767,84.188c-4.811-1.616-9.595,1.76-11.11,4.22c-0.262,0.423-0.814,1.849-1.555,3.921L78.3,112.584
			c-0.482,1.562-0.775,2.66-0.783,3.034c-0.018,0.88,0.328,2.121,1.052,3.396l-16.436,41.834c-1.404,3.575,0.642,7.72,4.569,9.263
			c3.926,1.543,8.245-0.105,9.65-3.676l17.077-43.473c0.737-0.526,1.318-1.164,1.685-1.877l1.144-2.685l6.65-19.799l0.867-3.429
			C105.01,91.736,102.577,85.804,97.767,84.188z"/>
		<path fill="#FFFFFF" d="M67.297,121.554l1.501-2.507l9.293-18.702l1.331-3.281c1.689-3.233,0.091-9.441-4.451-11.7
			c-4.547-2.259-9.745,0.433-11.585,2.663c-0.314,0.381-1.06,1.719-2.072,3.669l-9.509,19.138c-0.692,1.48-0.826,3.709-0.79,4.083
			c0.256,2.775,0.792,5.655,5.339,7.914C60.896,125.09,65.534,124.062,67.297,121.554z"/>
		<path fill="#FFFFFF" d="M168.714,87.486c-7.52,0-13.694,4.936-14.188,11.158h-24.261c0.032-0.858-0.077-1.751-0.351-2.64
			l-4.955-16.1c0.214-0.811,0.32-1.557,0.345-2.128c0.091-2.152-4.867-15.18-4.867-15.18l-1.519-3.722
			c-0.961-3.212-5.432-5.651-9.562-4.326c-6.282,2.021-5.376,8.777-5.354,8.997c0.045,0.451,0.415,1.807,1,3.741
			c0,0,4.055,12.84,5.139,14.315c0.562,0.766,2.055,2.24,3.935,3.3l4.483,14.597c1.131,3.67,4.587,5.861,7.725,4.896
			c1.336-0.41,2.395-1.33,3.086-2.532h25.417c1.331,5.444,7.07,9.55,13.928,9.55c7.839,0,14.216-5.367,14.216-11.965
			C182.93,92.853,176.553,87.486,168.714,87.486z M168.714,108.194c-6.065,0-11-3.924-11-8.746c0-4.821,4.935-8.743,11-8.743
			c6.063,0,10.997,3.922,10.997,8.743C179.711,104.271,174.777,108.194,168.714,108.194z"/>
	</g>
</g>
<g id="sport-taekwondo" display="none">
	<g display="inline">
		<path fill="#FFFFFF" d="M74.705,64.66c0,0,14.873,3.02,18.947,3.102c0.328,0.008,0.64-0.005,0.944-0.029
			c0.093,0.009,0.186,0.022,0.28,0.029c3.414,0.24,6.301-1.377,6.471-3.621l2.564-35.928c0.277-3.824-2.26-7.113-5.674-7.355
			c-3.414-0.25-6.391,2.637-6.658,6.471l-1.691,23.511l-12.735-1.962c-3.584-0.564-7.025,2.537-7.695,6.881
			C68.779,60.129,71.131,64.088,74.705,64.66z"/>
		<path fill="#FFFFFF" d="M170.613,32.691c-2.6-3.611-7.4-4.586-10.742-2.172l-56.286,40.533l-4.569,3.233l-3.352,2.35
			c-3.209,2.182-4.559,8.652-1.592,12.809c2.941,4.182,9.055,4.102,11.887,2.914c0.502-0.207,1.859-1.082,3.781-2.404l18.385-13.023
			c1.395-1.027,2.332-2.402,2.564-2.725c0.653-0.83,1.216-2.198,1.354-3.837l37.221-26.799
			C172.598,41.164,173.205,36.283,170.613,32.691z"/>
		<path fill="#FFFFFF" d="M93.93,96.674c0.107-3.889-4.352-8.768-9.465-8.795c-5.111-0.027-8.633,4.961-9.303,7.955
			c-0.125,0.518-0.207,2.135-0.26,4.477l-0.16,22.521c0.025,1.727,0.607,3.289,0.723,3.701c0.296,1.015,1.082,2.268,2.335,3.332
			l0.051,45.859c0,4.102,3.611,7.445,8.035,7.445c4.441,0,8.025-3.344,8.025-7.473l-0.059-67.51l0.049-7.439L93.93,96.674z"/>
		<path fill="#FFFFFF" d="M54.919,94.376c0.75-0.267,1.441-0.592,2.061-0.956l29.629-13.737c2.164-1.002,2.852-4.184,1.494-7.088
			c-1.342-2.922-4.201-4.459-6.383-3.432L59.969,79.231v-9.825v-3.861c0.07-3.639-4.371-8.17-9.43-8.17
			c-5.049,0-8.508,4.719-9.16,7.525c-0.125,0.482-0.188,2.02-0.215,4.211v18.15c0.027,1.484,0.09,2.502,0.215,2.834
			c0.652,1.885,4.111,5.041,9.16,5.041c1.21,0,2.383-0.178,3.469-0.477c0.274-0.037,0.54-0.112,0.794-0.23L54.919,94.376z"/>
		<path fill="#FFFFFF" d="M57.787,50.816h3.494c5.346,0,9.68-4.201,9.68-9.439v-6.014c0-5.229-4.334-9.465-9.68-9.465h-3.494
			c-5.344,0-9.68,4.236-9.68,9.465v6.014C48.107,46.615,52.443,50.816,57.787,50.816z"/>
	</g>
</g>
<g id="sport-table-tennis" display="none">
	<g display="inline">
		<path fill="#FFFFFF" d="M83.361,69.455h3.908c5.975,0,10.818-4.726,10.818-10.56V52.15c0-5.833-4.842-10.56-10.818-10.56h-3.908
			c-5.974,0-10.818,4.727-10.818,10.561v6.745C72.542,64.729,77.387,69.455,83.361,69.455z"/>
		<path fill="#FFFFFF" d="M86.893,119.161c3.688,3.687,9.178,4.355,13.153,1.893c0.446-0.139,0.84-0.362,1.161-0.683l41.456-41.457
			c3.54-3.541,4.093-8.77,1.374-11.975c4.618-2.786,7.724-7.836,7.724-13.611c0-8.771-7.136-15.905-15.906-15.905
			c-8.769,0-15.902,7.135-15.902,15.905c0,6.884,4.405,12.744,10.539,14.951l-32.908,32.909L71.78,75.387
			c-2.988-2.987-8.616-2.2-12.574,1.757c-3.958,3.957-4.744,9.587-1.757,12.573L86.893,119.161z M125.443,53.329
			c0-5.742,4.67-10.414,10.41-10.414c5.742,0,10.414,4.672,10.414,10.414c0,5.74-4.672,10.411-10.414,10.411
			C130.113,63.74,125.443,59.069,125.443,53.329z"/>
		<path fill="#FFFFFF" d="M190.062,128.279H9.666c-1.517,0-2.746,1.229-2.746,2.746s1.229,2.746,2.746,2.746h180.396
			c1.517,0,2.746-1.229,2.746-2.746S191.579,128.279,190.062,128.279z"/>
		<path fill="#FFFFFF" d="M160.225,93.102c3.223,0,5.832-2.613,5.832-5.831c0-3.221-2.609-5.832-5.832-5.832
			c-3.218,0-5.829,2.611-5.829,5.832C154.396,90.488,157.007,93.102,160.225,93.102z"/>
	</g>
</g>
<g id="sport-swimming-synchro" display="none">
	<g display="inline">
		<path fill="#FFFFFF" d="M171.133,139.833c-0.638-2.536-3.214-4.073-5.745-3.435l-23.769,5.983
			c0.247-0.801,0.285-1.677,0.065-2.549c-0.638-2.536-3.214-4.073-5.745-3.435l-21.799,5.487c0.173-0.72,0.179-1.489-0.015-2.257
			c-0.638-2.536-3.213-4.073-5.745-3.435l-22.308,5.614c-0.002-0.374-0.049-0.754-0.145-1.133c-0.638-2.535-3.21-4.073-5.745-3.435
			l-22.319,5.618c0.759-1.087,1.06-2.484,0.71-3.87c-0.639-2.535-3.21-4.067-5.747-3.433l-28.39,7.16
			c-2.535,0.64-4.071,3.213-3.432,5.747c0.639,2.535,3.212,4.069,5.747,3.433l22.304-5.626c-0.757,1.086-1.057,2.48-0.708,3.864
			c0.541,2.147,2.468,3.579,4.586,3.579c0.382,0,0.771-0.047,1.159-0.145l22.307-5.614c0.002,0.374,0.049,0.754,0.145,1.133
			c0.638,2.534,3.208,4.072,5.745,3.435l21.799-5.486c-0.173,0.719-0.179,1.489,0.015,2.257c0.638,2.535,3.213,4.072,5.745,3.435
			l23.769-5.983c-0.247,0.801-0.285,1.677-0.065,2.549c0.638,2.535,3.213,4.072,5.745,3.435l28.401-7.149
			C170.233,144.94,171.771,142.368,171.133,139.833z"/>
		<path fill="#FFFFFF" d="M79.529,81.295c3.369,3.369,8.901,3.301,12.351-0.148l2.254-2.265c3.461-3.438,3.529-8.971,0.159-12.352
			l-3.904-3.893c-3.369-3.381-8.913-3.302-12.362,0.147l-2.254,2.254c-3.449,3.449-3.517,8.981-0.147,12.362L79.529,81.295z"/>
		<path fill="#FFFFFF" d="M104.425,82.865c3.153,1.583,7.023,0.285,8.628-2.914l10.621-21.013c1.01-2.011,0.616-4.385-0.802-6.173
			l11.035-21.91c1.298-2.562,0.501-5.566-1.799-6.739c-2.288-1.161-5.213-0.011-6.5,2.55l-14.081,27.935
			c-0.006,0.011-0.007,0.024-0.013,0.036l-9.867,19.567C100.042,77.401,101.283,81.272,104.425,82.865z"/>
		<path fill="#FFFFFF" d="M24.878,95.388l24.516,0.018c0.957,2.079,2.9,3.511,5.138,3.511l23.563,0.012
			c3.574,0,6.489-2.869,6.489-6.387c0-3.54-2.915-6.397-6.489-6.397L56.25,86.123c-0.031-0.001-0.06-0.012-0.09-0.012l-31.281-0.034
			c-2.891,0-5.19,2.083-5.19,4.667C19.653,93.304,21.987,95.388,24.878,95.388z"/>
		<path fill="#FFFFFF" d="M106.029,109.07c3.37,3.357,8.902,3.301,12.352-0.148l2.265-2.254c3.449-3.472,3.518-8.992,0.148-12.362
			l-3.894-3.904c-3.381-3.369-8.924-3.301-12.362,0.148l-2.254,2.265c-3.449,3.438-3.528,8.981-0.147,12.351L106.029,109.07z"/>
		<path fill="#FFFFFF" d="M128.159,101.967c-1.617,3.198-0.376,7.08,2.777,8.663c3.142,1.593,7,0.284,8.64-2.903l10.598-21.024
			c1.01-2.012,0.621-4.389-0.796-6.173l11.029-21.898c1.31-2.562,0.501-5.578-1.798-6.739c-2.288-1.161-5.202-0.012-6.5,2.55
			l-14.081,27.924c-0.021,0.043-0.027,0.09-0.046,0.133L128.159,101.967z"/>
		<path fill="#FFFFFF" d="M82.745,113.886c-0.029-0.001-0.056-0.012-0.085-0.012l-31.281-0.023c-2.869,0-5.202,2.083-5.202,4.645
			c0,2.584,2.311,4.667,5.202,4.667l24.519,0.019c0.959,2.071,2.904,3.488,5.146,3.488l23.553,0.011
			c3.574,0.012,6.488-2.846,6.488-6.386c0-3.506-2.892-6.386-6.488-6.397L82.745,113.886z"/>
	</g>
</g>
<g id="sport-swimming_1_" display="none">
	<g display="inline">
		<path fill="#FFFFFF" d="M58.677,74.989c-0.954,2.603-0.503,5.494,1.424,7.413l20.246,20.234c3.058,3.069,8.025,3.116,11.06,0.094
			c3.023-3.046,2.988-8.002-0.094-11.072L72.544,72.89c-0.027-0.029-0.043-0.065-0.071-0.094L45.607,45.919
			c-2.483-2.461-6.256-2.672-8.482-0.457c-2.202,2.19-1.991,5.986,0.48,8.447L58.677,74.989z"/>
		<path fill="#FFFFFF" d="M139.15,83.422h5.529c4.733,0,8.612-3.948,8.612-8.834V71.39c0-4.874-3.879-8.834-8.612-8.834h-5.529
			c-4.769,0-8.623,3.96-8.623,8.834v3.198C130.527,79.474,134.382,83.422,139.15,83.422z"/>
		<path fill="#FFFFFF" d="M112.391,88.226h-5.519c-4.757,0-8.623,3.948-8.623,8.834v3.188c0,4.885,3.866,8.846,8.623,8.846h5.519
			c4.757,0,8.635-3.961,8.635-8.846V97.06C121.025,92.174,117.147,88.226,112.391,88.226z"/>
		<path fill="#FFFFFF" d="M91.682,50.039c-0.963,2.599-0.511,5.499,1.424,7.432l20.222,20.223c3.082,3.081,8.026,3.116,11.061,0.094
			c3.046-3.035,3.011-7.991-0.07-11.061l-18.778-18.767c-0.027-0.03-0.044-0.067-0.073-0.096L78.601,20.986
			c-2.472-2.46-6.269-2.683-8.459-0.469c-2.215,2.203-1.992,5.976,0.469,8.459L91.682,50.039z"/>
		<path fill="#FFFFFF" d="M64.237,111.278c2.245-3.65,1.627-8.688-1.758-12.062L35.427,72.163c-2.73-2.742-7.909-2.004-11.541,1.616
			c-3.632,3.633-4.358,8.811-1.617,11.553l23.703,23.703l-23.949,23.958c-2.823,2.824-2.765,7.452,0.129,10.346
			c2.895,2.894,7.522,2.94,10.346,0.141l31.106-31.118C63.903,112.063,64.112,111.695,64.237,111.278z"/>
		<path fill="#FFFFFF" d="M182.717,148.335c-0.638-2.533-3.212-4.068-5.742-3.432l-23.773,5.987c0.251-0.804,0.306-1.68,0.085-2.556
			c-0.638-2.533-3.212-4.068-5.742-3.432l-21.8,5.49c0.175-0.722,0.202-1.487,0.009-2.257c-0.638-2.534-3.216-4.071-5.741-3.433
			l-22.308,5.615c-0.001-0.377-0.032-0.758-0.129-1.141c-0.638-2.533-3.212-4.067-5.742-3.432l-22.329,5.623
			c0.766-1.087,1.087-2.479,0.737-3.869c-0.639-2.533-3.211-4.075-5.743-3.429l-28.377,7.158c-2.533,0.639-4.068,3.21-3.43,5.743
			c0.541,2.145,2.467,3.574,4.583,3.574c0.383,0,0.772-0.047,1.16-0.146l22.325-5.632c-0.764,1.087-1.084,2.476-0.735,3.865
			c0.541,2.146,2.467,3.576,4.583,3.576c0.382,0,0.771-0.047,1.159-0.145l22.295-5.614c0.001,0.376,0.033,0.757,0.129,1.139
			c0.54,2.146,2.467,3.577,4.583,3.577c0.383,0,0.771-0.047,1.158-0.145l21.812-5.491c-0.175,0.722-0.203,1.488-0.009,2.259
			c0.54,2.146,2.467,3.576,4.583,3.576c0.383,0,0.771-0.047,1.159-0.145l23.773-5.987c-0.251,0.804-0.306,1.68-0.085,2.556
			c0.54,2.146,2.467,3.576,4.583,3.576c0.383,0,0.771-0.047,1.159-0.145l28.377-7.146
			C181.818,153.439,183.354,150.868,182.717,148.335z"/>
	</g>
</g>
<g id="sport-shooting" display="none">
	<g display="inline">
		<path fill="#FFFFFF" d="M91.258,41.31h3.37c5.148,0,9.336-4.069,9.336-9.107v-5.813c0-5.039-4.188-9.118-9.336-9.118h-3.37
			c-5.148,0-9.325,4.079-9.325,9.118v5.813C81.933,37.241,86.11,41.31,91.258,41.31z"/>
		<path fill="#FFFFFF" d="M78.301,88.386c-4.439-1.025-8.617,1.364-9.326,5.355l-4.407,24.399c-0.387,2.197,0.093,4.374,1.18,6.164
			l-7.342,40.814c-0.731,4.101,1.288,8.039,4.515,8.791c3.24,0.74,6.436-1.975,7.199-6.086l7.334-40.814
			c1.618-1.164,2.81-2.952,3.202-5.139l4.385-24.389C85.751,93.48,82.74,89.422,78.301,88.386z"/>
		<path fill="#FFFFFF" d="M110.673,124.306c1.085-1.79,1.565-3.968,1.179-6.165l-4.396-24.399c-0.719-3.992-4.896-6.38-9.326-5.355
			c-4.438,1.037-7.459,5.094-6.74,9.097l4.385,24.389c0.393,2.19,1.584,3.981,3.204,5.146l7.333,40.808
			c0.742,4.111,3.938,6.826,7.176,6.086c3.24-0.752,5.258-4.69,4.539-8.791L110.673,124.306z"/>
		<path fill="#FFFFFF" d="M182.334,44.688H82.481c-0.045-0.001-0.088-0.008-0.134-0.008H55.09c-4.156,0-7.505,3.687-7.505,8.213
			s3.349,8.203,7.505,8.203h27.257c1.771,0,3.375-0.85,4.57-2.226h23.767c3.328,0,6.033-2.683,6.033-5.977
			c0-1.043-0.271-2.023-0.744-2.876h16.358l-24.493,24.495c-2.619,2.617-2.824,6.62-0.514,8.955
			c2.346,2.323,6.348,2.105,8.955-0.513l28.381-28.37c1.1-1.106,1.289-2.847,0.682-4.566h36.992c1.472,0,2.664-1.193,2.664-2.665
			S183.806,44.688,182.334,44.688z"/>
	</g>
</g>
<g id="sport-sailing" display="none">
	<g display="inline">
		<path fill="#FFFFFF" d="M72.927,81.784c3.195,3.212,8.462,3.137,11.725-0.134l2.146-2.147c3.288-3.296,3.347-8.528,0.151-11.74
			l-3.716-3.69c-3.194-3.212-8.444-3.137-11.724,0.134l-2.155,2.147c-3.271,3.279-3.329,8.529-0.135,11.741L72.927,81.784z"/>
		<path fill="#FFFFFF" d="M153.219,105.476c-1.938-4.369-6.5-6.6-10.156-4.956l-26.962,12.068
			c-4.093,1.836-5.829,6.868-3.866,11.263c1.971,4.378,6.877,6.433,10.961,4.587l13.086-5.861c0.079,0.54,0.33,1.058,0.77,1.448
			l14.657,13.023c-0.543-0.07-1.106-0.051-1.67,0.09l-22.568,5.7c0.242-0.768,0.295-1.605,0.083-2.443
			c-0.607-2.405-3.046-3.862-5.458-3.257l-20.727,5.233c0.169-0.688,0.196-1.421,0.012-2.156c-0.606-2.407-3.048-3.868-5.455-3.262
			l-21.2,5.334c-0.002-0.353-0.034-0.709-0.124-1.066c-0.605-2.407-3.046-3.871-5.455-3.262l-21.218,5.34
			c0.739-1.036,1.052-2.366,0.717-3.697c-0.606-2.407-3.046-3.865-5.456-3.26l-26.962,6.793c-2.407,0.606-3.866,3.049-3.26,5.455
			c0.514,2.039,2.344,3.397,4.354,3.397c0.363,0,0.733-0.045,1.102-0.138l21.215-5.345c-0.738,1.035-1.05,2.364-0.715,3.694
			c0.513,2.039,2.344,3.398,4.354,3.398c0.363,0,0.732-0.044,1.1-0.137l21.199-5.335c0.002,0.353,0.034,0.709,0.124,1.066
			c0.513,2.039,2.344,3.398,4.355,3.398c0.363,0,0.732-0.044,1.1-0.137l20.724-5.215c-0.17,0.692-0.199,1.428-0.012,2.167
			c0.515,2.037,2.344,3.395,4.354,3.395c0.364,0,0.734-0.045,1.104-0.138l22.577-5.701c-0.242,0.769-0.295,1.606-0.083,2.444
			c0.515,2.037,2.345,3.395,4.354,3.395c0.364,0,0.734-0.045,1.104-0.138l26.963-6.811c2.398-0.606,3.853-3.037,3.26-5.436
			L200,179.957v-6.412l-59.492-52.861l6.479-2.902L200,110.627v-4.837l-46.229,6.239
			C154.355,110.038,154.22,107.691,153.219,105.476z"/>
		<path fill="#FFFFFF" d="M134.453,93.468c-0.783-1.05-2.015-1.942-3.534-2.442l-12.582-4.104l62.103-85.515
			c0.31-0.426,0.451-0.919,0.451-1.408h-5.353l-61.99,85.361l-16.854-5.497c-2.08-0.696-4.378,0.646-5.133,2.969
			c-0.763,2.322,0.327,4.755,2.407,5.426l23.639,7.708l-20.611,11.155L83.754,91.966c-2.281-2.592-6.156-2.86-8.672-0.604
			c-2.516,2.265-2.709,6.206-0.444,8.798l14.92,17.066c0.877,1.005,2.073,1.556,3.346,1.702c1.061,0.543,2.195,0.638,3.136,0.126
			l29.68-16.068c1.467-0.799,2.469-2.078,2.886-3.466c2.385,0.642,4.697,0.111,5.906-1.257l65.472,0.444c0.006,0,0.012,0,0.017,0
			v-4.794L134.453,93.468z"/>
	</g>
</g>
<g id="sport-rugby" display="none">
	<g display="inline">
		<path fill="#FFFFFF" d="M79.81,29.287l-1.932-5.857c-1.667-5.093,1.263-10.616,6.552-12.361l3.449-1.129
			c5.277-1.735,10.923,1,12.584,6.06l1.936,5.879c1.67,5.094-1.264,10.619-6.538,12.344l-3.463,1.15
			C87.106,37.108,81.477,34.38,79.81,29.287z"/>
		<path fill="#FFFFFF" d="M67.275,39.759c-0.492,0.151-2.2,0.957-4.186,1.976c0,0-18.923,10.014-20.762,11.645
			c-0.57,0.51-1.411,1.342-2.233,2.367L13.731,79.194c-3.158,2.814-3.868,7.19-1.584,9.762c2.304,2.592,6.729,2.386,9.889-0.466
			l23.141-20.584c1.616,0.184,3.137,0.107,4.167-0.109c2.825-0.598,21.492-11.257,21.492-11.257l3.832-2.36
			c3.336-1.668,5.303-6.799,3.225-10.792C74.72,37.327,67.507,39.699,67.275,39.759z"/>
		<path fill="#FFFFFF" d="M93.463,88.277c0.307,0.439,0.997,1.996,1.902,4.223l8.562,22.012c0.621,1.695,1.663,4.624,1.705,5.048
			c0.09,1.186-0.336,2.961-1.35,4.719c0.156,0.242,0.299,0.491,0.408,0.766l21.347,52.574c1.586,3.934-0.618,8.549-4.924,10.289
			c-4.327,1.749-9.116-0.018-10.703-3.924L89.071,131.39c-0.34-0.83-0.403-1.719-0.248-2.609c-1.005-0.611-1.812-1.396-2.329-2.305
			l-1.46-3.047l-8.975-23.082l-1.141-3.738c-1.533-3.701,0.837-10.392,6.075-12.429C86.208,82.16,91.67,85.627,93.463,88.277z"/>
		<path fill="#FFFFFF" d="M115.962,117.246l-1.906-2.62l-12.077-19.639l-1.789-3.468c-2.182-3.378-1.04-10.38,3.733-13.314
			c4.761-2.923,10.761-0.502,13.013,1.779c0.37,0.396,1.328,1.779,2.63,3.819l12.376,20.111c0.903,1.55,2.882,6.609,2.881,7.051
			c0.093,3.234-0.104,6.621-4.889,9.564C125.19,123.456,118.15,119.843,115.962,117.246z"/>
		<path fill="#FFFFFF" d="M129.302,152.994c2.125-6.784,12.024-9.734,22.107-6.577c10.1,3.161,16.532,11.222,14.407,18.008
			c-2.122,6.781-12.002,9.739-22.104,6.575C133.631,167.846,127.18,159.775,129.302,152.994z"/>
	</g>
	<path display="inline" fill="#FFFFFF" d="M124.895,46.505c0.457,0.239,1.986,1.349,3.748,2.717c0,0,16.735,13.354,18.239,15.297
		c0.465,0.606,1.136,1.58,1.753,2.742l21.554,27.934c2.582,3.351,2.467,7.782-0.255,9.884c-2.743,2.12-7.055,1.097-9.631-2.292
		l-18.916-24.521c-1.623-0.12-3.103-0.477-4.074-0.882c-2.665-1.112-19.03-15.051-19.03-15.051l-3.327-3.029
		c-2.969-2.258-3.947-7.665-1.166-11.203C118.032,42.732,124.68,46.402,124.895,46.505z"/>
</g>
<g id="sport-rowing" display="none">
	<g display="inline">
		<rect x="199.259" y="126.696" fill="#FFFFFF" width="0.741" height="12.99"/>
		<path fill="none" d="M153.086,56.642c0-4.907,4.066-8.888,9.098-8.888h3.299c5.02,0,9.107,3.98,9.107,8.888v5.675
			c0,4.908-4.088,8.877-9.107,8.877h-3.299c-5.031,0-9.098-3.969-9.098-8.877V56.642z M60.852,56.642
			c0-4.907,4.077-8.888,9.095-8.888h3.303c5.027,0,9.106,3.98,9.106,8.888v5.675c0,4.908-4.079,8.877-9.106,8.877h-3.303
			c-5.018,0-9.095-3.969-9.095-8.877V56.642z"/>
		<path fill="none" d="M161.58,139.687H78.742l60.218,60.013c0.094,0.094,0.166,0.199,0.246,0.301H200v-21.895
			c-0.019-0.018-0.04-0.029-0.059-0.048L161.58,139.687z"/>
		<polygon fill="none" points="40.472,126.696 56.505,126.696 48.479,118.697 		"/>
		<polygon fill="none" points="53.074,114.106 65.707,126.696 70.043,126.696 55.271,111.912 		"/>
		<polygon fill="none" points="132.704,126.696 148.593,126.696 140.652,118.754 		"/>
		<polygon fill="none" points="145.247,114.162 157.778,126.696 162.277,126.696 147.503,111.909 		"/>
		<path fill="#FFFFFF" d="M69.947,71.193h3.303c5.027,0,9.106-3.969,9.106-8.877v-5.675c0-4.907-4.079-8.888-9.106-8.888h-3.303
			c-5.018,0-9.095,3.98-9.095,8.888v5.675C60.852,67.225,64.929,71.193,69.947,71.193z"/>
		<path fill="#FFFFFF" d="M162.184,71.193h3.299c5.02,0,9.107-3.969,9.107-8.877v-5.675c0-4.907-4.088-8.888-9.107-8.888h-3.299
			c-5.031,0-9.098,3.98-9.098,8.888v5.675C153.086,67.225,157.152,71.193,162.184,71.193z"/>
		<path fill="#FFFFFF" d="M170.765,139.687h28.494v-12.99h-12.102c-0.103-1.509-0.652-2.884-1.688-3.924l-27.867-27.878
			c-3.5-3.491-8.734-4.115-12.492-1.759c-0.399,0.131-0.754,0.332-1.043,0.62l-9.614,9.608l-13.594-13.598h32.239
			c0.054,0,0.105-0.008,0.158-0.011h27.291c4.494,0,8.125-3.574,8.125-8.003c0-4.427-3.631-8.001-8.125-8.001h-29.449
			c-2.821,0-5.248,1.771-6.442,4.36h-30.694c-3.586,0-6.504,2.624-6.504,5.839c0,2.276,1.468,4.241,3.596,5.196l18.805,18.809
			l-17.832,17.822c-0.287,0.288-0.536,0.598-0.765,0.918H94.919c-0.102-1.509-0.653-2.884-1.697-3.924L65.355,94.895
			c-3.494-3.486-8.703-4.112-12.462-1.768c-0.411,0.13-0.774,0.335-1.071,0.629l-9.569,9.566L28.651,89.767h32.212
			c0.054,0,0.105-0.008,0.159-0.011h27.302c4.494,0,8.113-3.574,8.113-8.003c0-4.427-3.619-8.001-8.113-8.001H58.863
			c-2.823,0-5.249,1.771-6.444,4.36H21.725c-3.112,0-5.704,1.965-6.348,4.577c-0.438,0.945-0.394,2.048,0.126,2.961
			c0.525,1.54,1.747,2.803,3.336,3.508l18.82,18.756l-17.869,17.864c-0.287,0.288-0.536,0.598-0.765,0.918H0.416v12.99H69.54
			L130.059,200h9.147c-0.08-0.102-0.152-0.207-0.246-0.301l-60.218-60.013h82.838l38.361,38.371c0.019,0.019,0.04,0.03,0.059,0.048
			v-9.176L170.765,139.687z M40.472,126.696l8.007-7.999l8.026,7.999H40.472z M65.707,126.696l-12.633-12.59l2.197-2.194
			l14.772,14.784H65.707z M132.704,126.696l7.948-7.942l7.94,7.942H132.704z M157.778,126.696l-12.531-12.534l2.256-2.253
			l14.774,14.787H157.778z"/>
	</g>
</g>
<g id="sport-modern-pentathlon" display="none">
	<g display="inline">
		<path fill="#FFFFFF" d="M94.192,54.229l3.003,0.746c4.571,1.159,9.184-1.518,10.307-5.977l1.318-5.168
			c1.135-4.465-1.652-9.029-6.217-10.177l-2.992-0.771c-4.55-1.159-9.176,1.518-10.317,5.988l-1.308,5.162
			C86.852,48.493,89.627,53.063,94.192,54.229z"/>
		<path fill="#FFFFFF" d="M142.717,83.486l25.9,14.39c1.143,0.634,2.572,0.272,3.275-0.822l6.828-10.608
			c0.518-0.804,0.523-1.835,0.018-2.646l-27.934-44.646l4.408-5.19c0.883-1.039,0.756-2.597-0.285-3.479
			c-1.037-0.882-2.598-0.755-3.479,0.284l-35.957,42.24l-20.253-0.838c-0.046-0.136-0.093-0.27-0.141-0.388
			c-0.95-2.319-12.977-15.974-12.977-15.974l-2.64-2.807c-1.974-2.535-6.809-3.158-10.034-0.542
			c-4.922,3.977-1.776,9.701-1.678,9.893c0.185,0.388,0.999,1.474,2.184,2.991c0,0,7.775,9.662,11.488,13.774
			c0.924,1.841,3.853,3.609,6.657,4.061c1.001,0.248,2.035,0.351,3.018,0.194L106.135,84L92.854,99.601H72.827
			c-2.417-1.134-4.644-2.175-5.414-2.545c0,0-15.987-7.629-18.034-7.857c-2.06-0.266-7.148,1.152-9.104,5.445
			c-0.806,1.753-0.893,3.446-0.602,4.957H16.747c-0.429,0-0.826,0.12-1.178,0.312c-0.766,0.419-1.291,1.223-1.291,2.157
			s0.525,1.736,1.291,2.156c0.352,0.193,0.749,0.312,1.178,0.312h25.532c0.026,0.025,0.055,0.059,0.081,0.084
			c1.536,1.486,20.352,9.723,24.841,11.676l-29.028,28.104c-2.479,2.412-2.338,6.582,0.334,9.326
			c2.651,2.75,6.826,3.029,9.318,0.629l37.88-36.703c1.93-1.861,2.131-4.938,0.701-7.49c-0.781-2.473-2.738-4.455-4.14-5.625h11.728
			c0.724,0,1.411-0.318,1.88-0.869l16.525-19.408l25.107,1.051C139.568,85.403,141.441,84.685,142.717,83.486z M147.449,43.096
			l26.271,41.994l-4.727,7.346l-24.676-13.709c-0.527-2.602-3.105-4.653-6.301-4.787l-16.258-0.673L147.449,43.096z"/>
		<path fill="#FFFFFF" d="M129.975,123.311c0,4.879,3.953,8.844,8.844,8.844c4.885,0,8.834-3.965,8.834-8.844
			c0-4.885-3.949-8.85-8.834-8.85C133.928,114.461,129.975,118.426,129.975,123.311z"/>
		<path fill="#FFFFFF" d="M154.479,129.627c-4.873,0-8.85,3.965-8.85,8.844c0,4.885,3.977,8.85,8.85,8.85
			c4.891,0,8.85-3.965,8.85-8.85C163.328,133.592,159.369,129.627,154.479,129.627z"/>
		<path fill="#FFFFFF" d="M170.156,145.545c-4.891,0-8.857,3.953-8.857,8.85c0,4.879,3.967,8.844,8.857,8.844
			c4.873,0,8.844-3.965,8.844-8.844C179,149.498,175.029,145.545,170.156,145.545z"/>
		<path fill="#FFFFFF" d="M170.014,114.596c-4.883,0-8.832,3.953-8.832,8.844c0,4.885,3.949,8.838,8.832,8.838
			c4.904,0,8.852-3.953,8.852-8.838C178.865,118.549,174.918,114.596,170.014,114.596z"/>
		<path fill="#FFFFFF" d="M138.566,144.785c-4.885,0-8.85,3.967-8.85,8.852c0,4.879,3.965,8.83,8.85,8.83
			c4.891,0,8.838-3.951,8.838-8.83C147.404,148.752,143.457,144.785,138.566,144.785z"/>
	</g>
</g>
<g id="sport-judo" display="none">
	<g display="inline">
		<path fill="#FFFFFF" d="M81.098,106.746l-4.836,4.402l-11.623,12.078l-4.28,4.635c-0.717,1.161-1.107,2.348-1.102,3.583
			c-0.182,0.156-0.358,0.321-0.529,0.498c0,0-27.826,28.335-28.425,30.222c-0.599,1.852-1.93,5.367,0.81,8.018
			c2.694,2.641,6.354,3.294,8.151,1.442L68.48,141.59c1.623,0.299,3.095-0.218,4.643-1.451c2.307-1.83,3.271-3.062,4.724-4.48
			l11.7-11.867c1.675-1.764,4.669-5.035,4.969-5.489c1.729-2.661,1.165-6.731-2.351-10.192
			C88.65,104.639,83.881,103.818,81.098,106.746z"/>
		<path fill="#FFFFFF" d="M117.464,137.405c0.148-0.271,0.266-0.531,0.343-0.771c0.121-0.366,0.232-5.002,0.277-6.476l0.154-18.399
			c-0.012-2.141-0.077-3.626-0.188-4.093c-0.621-2.739-3.96-7.375-8.973-7.397c-4.99-0.044-9.416,4.336-9.371,7.864l-0.033,3.736
			l-0.155,17.943l-0.044,6.189c-0.041,1.094,0.661,2.302,1.834,3.358l22.497,34.083c1.83,2.771,5.989,3.193,9.372,0.997
			c3.371-2.218,4.59-6.266,2.771-9.005L117.464,137.405z"/>
		<path fill="#FFFFFF" d="M96.846,78.291c-0.227-0.408-0.501-0.817-0.832-1.233c-1.84-2.285-3.072-3.238-4.492-4.68L79.623,60.711
			c-1.775-1.675-5.046-4.669-5.512-4.958c-2.673-1.73-6.754-1.131-10.181,2.384c-3.46,3.527-4.281,8.295-1.342,11.079l4.415,4.802
			l11.292,10.818c-9.782,6.671-23.3,16.012-23.914,17.097c-0.954,1.696-2.961,4.88-0.82,8.019c2.129,3.139,5.578,4.503,7.696,3.071
			l34.735-23.61c3.326-2.241,4.246-6.599,2.129-9.738C97.757,79.14,97.324,78.682,96.846,78.291z"/>
		<path fill="#FFFFFF" d="M36.881,63.96l3.227,1.752c4.902,2.717,11.035,1.009,13.674-3.793l3.05-5.567
			c2.65-4.802,0.798-10.88-4.115-13.575l-3.227-1.796c-4.914-2.695-11.046-0.987-13.674,3.804l-3.05,5.579
			C30.116,55.154,31.967,61.243,36.881,63.96z"/>
		<path fill="#FFFFFF" d="M107.204,59.79l13.962-11.999c1.076-0.987,4.559-4.082,4.736-4.393c0.138-0.211,0.265-0.466,0.378-0.752
			l33.358-3.96c3.283-0.4,5.556-3.948,5.09-7.952c-0.477-3.992-3.527-6.92-6.809-6.543l-40.561,4.836
			c-1.562-0.211-2.939,0.034-3.757,0.775l-4.68,4.027L95.315,45.527l-2.828,2.429c-2.739,2.262-3.205,8.451,0.033,12.244
			c3.249,3.826,8.938,3.372,11.445,2.085C104.376,62.063,105.551,61.154,107.204,59.79z"/>
		<path fill="#FFFFFF" d="M180.033,82.425L144.83,61.758c-1.12-1.122-2.371-1.762-3.469-1.658l-6.166,0.366l-17.91,1.098
			l-3.738,0.211c-3.537,0.144-7.662,4.791-7.386,9.792c0.311,4.957,5.102,8.073,7.874,8.562c0.477,0.066,1.963,0.055,4.093-0.033
			l18.376-1.109c1.464-0.133,6.088-0.478,6.443-0.621c0.234-0.086,0.486-0.214,0.746-0.373l28.954,17.008
			c2.861,1.686,6.819,0.21,8.851-3.261C183.549,88.281,182.873,84.1,180.033,82.425z"/>
		<path fill="#FFFFFF" d="M42.858,104.738l4.902-4.048c4.248-3.493,4.769-9.837,1.198-14.173l-2.329-2.838
			c-3.582-4.348-9.915-5.047-14.162-1.564l-4.902,4.06c-4.248,3.504-4.792,9.837-1.209,14.195l2.34,2.828
			C32.267,107.544,38.61,108.232,42.858,104.738z"/>
	</g>
</g>
<g id="sport-hockey" display="none">
	<g display="inline">
		<path fill="#FFFFFF" d="M104.854,95.65l-17.31-24.792l-2.597-3.717c-2.392-3.584-9.834-4.927-14.805-1.458
			c-4.973,3.472-5.168,10.411-3.904,13.584c0.216,0.546,1.18,2.075,2.626,4.231l17.462,25.008c0.497,0.678,0.921,1.242,1.302,1.734
			l-25.6,43.666c-2.294,3.91-0.738,9.084,3.479,11.555c4.212,2.471,9.487,1.303,11.78-2.609c0,0,28.888-48.959,31.205-53.285
			C110.632,105.572,108.508,98.635,104.854,95.65z"/>
		<path fill="#FFFFFF" d="M74.105,116.146c-0.124-0.925-0.234-1.805-0.376-2.617c0.128-0.695,0.11-1.353-0.076-1.932l-7.873-27.156
			l-1.274-4.393c-1.129-4.2-7.455-7.995-12.931-6.407c-5.479,1.588-7.644,8.076-7.415,11.501c0.037,0.589,0.467,2.361,1.152,4.887
			l6.033,20.799l-31.879,4.24c-4.494,0.596-7.64,4.83-7.024,9.455c0.615,4.626,4.757,7.889,9.251,7.291l47.701-6.344
			C72.312,125.082,74.72,120.771,74.105,116.146z"/>
		<path fill="#FFFFFF" d="M142.908,46.87c3.543,4.728,10.172,5.739,14.814,2.262l5.37-4.022c4.642-3.48,5.536-10.127,1.992-14.855
			l-2.313-3.09c-3.54-4.727-10.174-5.742-14.814-2.263l-5.371,4.021c-4.641,3.477-5.531,10.13-1.991,14.856L142.908,46.87z"/>
		<path fill="#FFFFFF" d="M179.141,152.531c-2.977,0-5.391,2.514-5.391,5.611c0,3.096,2.414,5.604,5.391,5.604
			s5.391-2.508,5.391-5.604C184.531,155.045,182.117,152.531,179.141,152.531z"/>
		<path fill="#FFFFFF" d="M173.35,166.96c-7.95,3.672-16.062-2.255-18.084-4.287c-1.74-3.047-9.649-27.491-16.809-50.821
			c1.5-2.16,1.939-5.336,0.888-8.524l-8.302-24.596l10.977-8.157l3.566-2.65c3.432-2.461,5.046-8.871,2.096-12.596
			c-2.953-3.729-9.352-3.008-12.346-1.547c-0.515,0.251-1.976,1.251-4.041,2.741l-13.379,9.943
			c-1.025,0.459-1.829,0.951-2.453,1.465l-5.004-8.715l12.613-9.352l3.568-2.646c3.438-2.452,4.818-9.173,1.589-13.261
			c-3.224-4.088-9.812-3.618-12.845-2.205c-0.521,0.242-1.988,1.237-4.055,2.72L95.649,46.098c-1.286,1.004-2.151,1.736-2.368,2.042
			c-0.058,0.082-0.106,0.202-0.161,0.296c-3.18,3.343-1.616,7.327,0.5,10.749l29.728,51.84c2.314,4.034,6.598,6.082,10.023,4.994
			c7.156,23.292,15.222,48.44,17.336,50.687c2.256,2.402,9.174,7.514,17.312,7.514c2.544,0,5.206-0.5,7.882-1.736
			c1.527-0.706,2.191-2.512,1.486-4.039C176.68,166.918,174.869,166.256,173.35,166.96z"/>
	</g>
</g>
<g id="sport-handball" display="none">
	<g display="inline">
		<path fill="#FFFFFF" d="M155.805,96.476l-25.177-3.703c-0.743-1.509-1.895-2.813-3.135-3.796
			c-2.001-1.551-18.685-8.203-18.685-8.203l-4.029-1.415c-3.228-1.487-8.293,0.36-10.141,4.562
			c-2.812,6.399,3.182,10.429,3.371,10.572c0.396,0.279,1.73,0.929,3.677,1.812c0,0,10.143,4.519,15.325,6.475
			c0.771,0.547,1.613,0.934,2.441,1.052l34.513,5.11c4.021,0.595,7.698-1.73,8.212-5.174
			C162.683,100.333,159.825,97.079,155.805,96.476z"/>
		<path fill="#FFFFFF" d="M106.699,53.679l-3.029,0.181c-4.633,0.243-8.221,4.074-7.986,8.536l0.289,5.174
			c0.234,4.461,4.19,7.887,8.833,7.652l3.038-0.181c4.642-0.252,8.211-4.065,7.986-8.526l-0.279-5.174
			C115.307,56.879,111.368,53.454,106.699,53.679z"/>
		<path fill="#FFFFFF" d="M65.57,55.24c1.472,4.352,9.59,19.801,9.59,19.801l2.108,3.695c1.461,3.254,6.499,5.184,10.646,3.228
			c6.337-3.011,4.426-9.987,4.372-10.213c-0.1-0.45-0.677-1.839-1.568-3.785c0,0-6.698-14.219-9.339-18.857l15.485-12.917
			c2.037-1.694,1.894-5.255-0.352-7.904c-2.235-2.668-5.688-3.452-7.733-1.767L65.227,46.216c-2.298,1.929-2.37,5.651-0.144,8.328
			C65.199,54.81,65.371,55.035,65.57,55.24z"/>
		<path fill="#FFFFFF" d="M57.917,119.866c1.396-0.901,13.7-11.619,13.7-11.619l2.65-2.623c3.028-2.442,4.065-9.157,0.604-13.268
			c-3.497-4.074-9.681-3.66-12.402-2.263c-0.478,0.253-1.758,1.235-3.569,2.723l-14.143,12.312
			c-1.136,1.027-3.623,7.706,0.315,12.475C49.021,122.371,55.844,121.227,57.917,119.866z"/>
		<path fill="#FFFFFF" d="M95.26,102.244c-4.146-3.425-10.14-1.884-12.583-0.009c-0.423,0.333-1.514,1.505-3.028,3.29L67.94,120.19
			c-0.479,0.612-1.039,2.751-0.843,5.226l-31.977,39.59c-2.56,3.154-1.812,7.995,1.677,10.816c3.471,2.803,8.374,2.506,10.916-0.649
			l33.497-41.484c1.014-0.412,1.823-0.905,2.296-1.356c1.226-1.146,11.411-13.846,11.411-13.846l2.154-3.091
			C99.596,112.457,99.425,105.66,95.26,102.244z"/>
		<path fill="#FFFFFF" d="M109.953,37.094c5.426,0,9.834-4.326,9.834-9.645c0-5.327-4.408-9.626-9.834-9.626
			c-5.444,0-9.844,4.299-9.844,9.626C100.109,32.768,104.509,37.094,109.953,37.094z"/>
	</g>
</g>
<g id="sport-gymnastics-rhythmic" display="none">
	<g display="inline">
		<path fill="#FFFFFF" d="M181.322,73.339H154.37c-1.379-2.62-4.593-4.329-5.747-4.329l-21.979,0.024
			c-4.102,0-7.418,3.765-7.418,8.405c0,4.674,3.316,8.456,7.418,8.456h25.004c0.251,0,0.494-0.091,0.728-0.247h28.946
			c3.812,0,6.889-2.758,6.889-6.155C188.211,76.091,185.135,73.339,181.322,73.339z"/>
		<path fill="#FFFFFF" d="M107.041,53.983c0,0-13.874-10.083-17.821-12.474c-1.866-1.14-4.376-0.637-6.526,0.216L63.152,27.201
			c-3.062-2.267-7.18-1.897-9.208,0.827c-2.038,2.725-1.203,6.777,1.856,9.043L78.2,53.704c0.392,0.852,0.814,1.477,1.166,1.719
			l18.105,12.441c3.365,2.324,8.251,1.105,10.896-2.734C111.01,61.292,110.42,56.315,107.041,53.983z"/>
		<path fill="#FFFFFF" d="M98.396,86.274c-5.696,0-9.601,4.999-10.337,7.979c-0.123,0.508-0.204,2.144-0.246,4.46v19.235
			c0.042,1.57,0.123,2.646,0.246,2.997c0.295,0.8,1.106,1.816,2.331,2.75v44.477c0,4.092,3.579,7.415,7.966,7.415
			c4.444,0,7.995-3.323,7.995-7.415v-44.093c1.688-1.083,2.731-2.403,2.693-3.593v-21.47v-4.083
			C109.128,91.069,104.126,86.274,98.396,86.274z"/>
		<path fill="#FFFFFF" d="M81.74,68.044c-0.507-0.123-2.12-0.203-4.452-0.262H58.053c-1.556,0.059-2.66,0.139-2.996,0.262
			c-0.802,0.296-1.823,1.108-2.759,2.334h-33.6c-3.526,0-6.384,3.567-6.384,7.979c0,4.412,2.857,7.982,6.384,7.982h33.229
			c1.083,1.682,2.402,2.725,3.588,2.683h21.478h4.077c3.863,0.09,8.667-4.936,8.667-10.641
			C89.737,72.669,84.728,68.781,81.74,68.044z"/>
		<path fill="#FFFFFF" d="M130.565,65.556c5.19,0,9.39-4.304,9.39-9.617v-3.471c0-5.328-4.199-9.634-9.39-9.634h-6.009
			c-5.18,0-9.389,4.306-9.389,9.634v3.471c0,5.313,4.209,9.617,9.389,9.617H130.565z"/>
	</g>
</g>
<g id="sport-gymnastics-artistic" display="none">
	<g display="inline">
		<path fill="#FFFFFF" d="M181.322,73.339H154.37c-1.379-2.62-4.593-4.329-5.747-4.329l-21.979,0.024
			c-4.102,0-7.418,3.765-7.418,8.405c0,4.674,3.316,8.456,7.418,8.456h25.004c0.251,0,0.494-0.091,0.728-0.247h28.946
			c3.812,0,6.889-2.758,6.889-6.155C188.211,76.091,185.135,73.339,181.322,73.339z"/>
		<path fill="#FFFFFF" d="M107.041,53.983c0,0-13.874-10.083-17.821-12.474c-1.866-1.14-4.376-0.637-6.526,0.216L63.152,27.201
			c-3.062-2.267-7.18-1.897-9.208,0.827c-2.038,2.725-1.203,6.777,1.856,9.043L78.2,53.704c0.392,0.852,0.814,1.477,1.166,1.719
			l18.105,12.441c3.365,2.324,8.251,1.105,10.896-2.734C111.01,61.292,110.42,56.315,107.041,53.983z"/>
		<path fill="#FFFFFF" d="M98.396,86.274c-5.696,0-9.601,4.999-10.337,7.979c-0.123,0.508-0.204,2.144-0.246,4.46v19.235
			c0.042,1.57,0.123,2.646,0.246,2.997c0.295,0.8,1.106,1.816,2.331,2.75v44.477c0,4.092,3.579,7.415,7.966,7.415
			c4.444,0,7.995-3.323,7.995-7.415v-44.093c1.688-1.083,2.731-2.403,2.693-3.593v-21.47v-4.083
			C109.128,91.069,104.126,86.274,98.396,86.274z"/>
		<path fill="#FFFFFF" d="M81.74,68.044c-0.507-0.123-2.12-0.203-4.452-0.262H58.053c-1.556,0.059-2.66,0.139-2.996,0.262
			c-0.802,0.296-1.823,1.108-2.759,2.334h-33.6c-3.526,0-6.384,3.567-6.384,7.979c0,4.412,2.857,7.982,6.384,7.982h33.229
			c1.083,1.682,2.402,2.725,3.588,2.683h21.478h4.077c3.863,0.09,8.667-4.936,8.667-10.641
			C89.737,72.669,84.728,68.781,81.74,68.044z"/>
		<path fill="#FFFFFF" d="M130.565,65.556c5.19,0,9.39-4.304,9.39-9.617v-3.471c0-5.328-4.199-9.634-9.39-9.634h-6.009
			c-5.18,0-9.389,4.306-9.389,9.634v3.471c0,5.313,4.209,9.617,9.389,9.617H130.565z"/>
	</g>
</g>
<g id="sport-golf" display="none">
	<g display="inline">
		<path fill="#FFFFFF" d="M101.475,35.668h3.578c5.467,0,9.913-4.32,9.913-9.671v-6.173c0-5.351-4.446-9.683-9.913-9.683h-3.578
			c-5.468,0-9.902,4.332-9.902,9.683v6.173C91.572,31.348,96.007,35.668,101.475,35.668z"/>
		<path fill="#FFFFFF" d="M124.921,127.25c1.151-1.899,1.661-4.212,1.251-6.545l-4.669-25.91c-0.763-4.238-5.199-6.774-9.902-5.687
			c-4.713,1.1-7.921,5.41-7.157,9.66l4.656,25.897c0.418,2.325,1.682,4.227,3.402,5.463l7.786,43.334
			c0.788,4.365,4.181,7.248,7.619,6.462c3.441-0.798,5.584-4.981,4.82-9.335L124.921,127.25z"/>
		<path fill="#FFFFFF" d="M131.894,43.89c-3.624-3.158-8.902-3.042-11.803,0.285l-19.016,21.821
			c-1.235,1.418-1.675,3.295-1.407,5.21L85.841,87.074l-3.806-15.029c0.897-1.334,1.524-2.704,1.803-3.707
			c0.764-2.753-0.081-16.573-0.081-16.573l-0.323-4.44c0.055-3.689-3.553-7.756-8.006-7.752c-6.77,0.022-7.975,7.435-8.027,7.667
			c-0.094,0.501-0.165,2.368-0.176,4.576c0,0,0.163,13.748,0.755,16.107c0.188,0.733,0.537,1.85,1.062,3.04l8.563,33.839
			c0.375,1.476,1.081,2.757,1.984,3.756l-4.516,5.183l-9.077,10.416l-27.488,35.122c-0.138-0.091-0.27-0.182-0.418-0.271
			c-4.248-2.538-9.271-3.999-11.217-3.258c-1.946,0.739,0.388,9.139,4.637,11.678c4.248,2.539,10.751-2.481,10.751-2.481
			s0.005-0.403-0.152-1.029l45.1-54.093c0.763-0.549,1.381-1.306,1.829-2.195l25.078-30.079c0.033-0.035,0.069-0.064,0.1-0.102
			l19.016-21.82C136.132,52.3,135.519,47.048,131.894,43.89z"/>
		<path fill="#FFFFFF" d="M100.948,99.697l-21.733,24.791c0.191,1.271,0.628,2.482,1.28,3.559l-7.807,43.34
			c-0.764,4.354,1.379,8.536,4.819,9.335c3.439,0.786,6.832-2.097,7.62-6.463l7.786-43.333c1.72-1.236,2.984-3.139,3.402-5.463
			L100.948,99.697z"/>
		<circle fill="#FFFFFF" cx="100.948" cy="182.113" r="5.044"/>
	</g>
</g>
<g id="sport-football" display="none">
	<g display="inline">
		<path fill="#FFFFFF" d="M136.411,35.272l0.604-6.137c0.513-5.334-3.556-10.082-9.099-10.628l-3.612-0.347
			c-5.526-0.539-10.438,3.365-10.953,8.667l-0.602,6.161c-0.515,5.336,3.557,10.084,9.081,10.612l3.63,0.365
			C131.003,44.503,135.899,40.608,136.411,35.272z"/>
		<path fill="#FFFFFF" d="M106.388,42.602c-0.512-0.05-2.397,0.041-4.623,0.222c0,0-21.314,2.003-23.639,2.804
			c-0.722,0.253-1.815,0.701-2.969,1.333L41.825,58.522c-3.995,1.39-6.328,5.16-5.201,8.411c1.132,3.276,5.301,4.781,9.312,3.357
			l29.259-10.152c1.422,0.787,2.855,1.3,3.891,1.493c2.838,0.53,24.166-2.166,24.166-2.166l4.442-0.712
			c3.722-0.264,7.502-4.25,7.112-8.734C114.196,43.205,106.627,42.635,106.388,42.602z"/>
		<path fill="#FFFFFF" d="M172.198,69.604c-2.453-2.389-29.864-17.36-29.864-17.36l-4.004-1.918
			c-3.167-1.919-8.634-0.611-11.04,3.54c-3.648,6.294,2.101,11.183,2.281,11.331c0.374,0.347,1.695,1.182,3.599,2.332
			c0,0,12.174,7.084,20.225,11.504l-23.896,13.201c-4.096,2.282-5.997,6.684-4.236,9.867c1.753,3.16,6.486,3.896,10.595,1.639
			l37.335-20.67c1.232-0.686,1.874-2.103,1.917-3.764C176.425,75.554,174.405,71.714,172.198,69.604z"/>
		<path fill="#FFFFFF" d="M95.587,89.878c-0.456,0.28-1.713,1.431-3.434,3.109l-16.649,16.748c-1.248,1.308-3.374,3.574-3.581,3.945
			c-0.558,1.051-0.878,2.848-0.651,4.866c-0.24,0.157-0.471,0.33-0.681,0.536l-40.594,39.649c-3.027,2.971-2.854,8.081,0.397,11.397
			c3.267,3.334,8.361,3.631,11.38,0.687l40.594-39.668c0.643-0.626,1.058-1.415,1.271-2.293c1.167-0.158,2.221-0.556,3.057-1.18
			l2.556-2.209L106.71,107.9l2.539-2.97c2.888-2.779,3.391-9.859-0.596-13.821C104.684,87.174,98.291,88.166,95.587,89.878z"/>
		<path fill="#FFFFFF" d="M63.379,107.429l2.796-1.638l18.924-13.168l3.027-2.465c3.35-2.224,5.104-9.098,1.902-13.696
			c-3.193-4.582-9.66-4.764-12.638-3.573c-0.496,0.215-1.928,1.1-3.938,2.448L54.066,88.819c-1.447,1.059-5.285,4.904-5.46,5.31
			c-1.38,2.928-2.554,6.111,0.654,10.72C52.438,109.43,60.335,108.934,63.379,107.429z"/>
		<path fill="#FFFFFF" d="M88.655,147.815c-7.956,0-14.417,6.318-14.417,14.11c0,7.807,6.461,14.109,14.417,14.109
			s14.416-6.303,14.416-14.109C103.071,154.134,96.611,147.815,88.655,147.815z"/>
	</g>
</g>
<g id="sport-fencing" display="none">
	<g display="inline">
		<path fill="#FFFFFF" d="M121.128,99.137c-0.109-0.065-0.218-0.133-0.333-0.181l-2.785-1.249l-20.398-9.135l-3.751-1.681
			c-3.529-1.673-9.994,0.88-12.306,6.037c-2.31,5.16,0.729,10.743,3.179,12.638c0.421,0.326,1.882,1.068,4.01,2.07l13.647,6.109
			l-26.383,25.239c-2.97,2.839-2.897,7.734,0.162,10.933c3.06,3.2,7.947,3.488,10.916,0.649c0,0,34.666-32.961,37.556-35.965
			c2.891-3.003,2.272-10.241-0.785-13.439C122.878,100.14,121.978,99.485,121.128,99.137z"/>
		<path fill="#FFFFFF" d="M74.207,121.729l0.103-23.842l0.018-4.11c0.097-3.903-4.659-8.781-10.091-8.806
			c-5.431-0.021-9.154,5.017-9.867,8.027c-0.124,0.515-0.207,2.152-0.26,4.503l-0.096,22.869c0.034,1.752,0.105,2.961,0.223,3.348
			c0.054,0.176,0.133,0.362,0.224,0.554l-27.81,35.323c-2.542,3.229-1.727,8.111,1.823,10.903c3.546,2.794,8.482,2.44,11.024-0.788
			l34.014-43.205C74.522,125.222,74.714,123.49,74.207,121.729z"/>
		<path fill="#FFFFFF" d="M55.302,54.098c0.45,1.467,1.269,2.708,2.302,3.631c0.342,0.651,0.781,1.166,1.311,1.468l18.618,11.285
			l3.786,2.295c3.56,2.245,10.227,1.343,12.717-2.765c2.492-4.108-0.468-9.732-2.922-11.946c-0.423-0.38-1.894-1.351-4.042-2.699
			L70.432,45.281c-1.412-0.811-2.413-1.339-2.774-1.433c-0.407-0.106-0.913-0.153-1.479-0.132
			c-2.753-9.222-7.559-25.158-8.152-26.048c-0.837-1.254-3.952-3.871-7.485-2.789c-3.084,0.293-5.282,4.668-4.417,7.484
			L55.302,54.098z"/>
		<path fill="#FFFFFF" d="M103.222,54.8l3.364,1.016c5.145,1.552,10.568-1.337,12.113-6.453l1.787-5.922
			c1.545-5.116-1.372-10.522-6.517-12.076l-3.364-1.016c-5.145-1.554-10.569,1.336-12.113,6.453l-1.789,5.919
			C95.159,47.837,98.078,53.245,103.222,54.8z"/>
		<path fill="#FFFFFF" d="M171.724,93.279c-0.652-5.944-3.23-10.388-6.319-10.388c-1.972,0-3.734,1.814-4.924,4.667l-26.537-3.231
			c-0.104-0.586-0.24-1.103-0.396-1.508c-0.893-2.32-12.112-14.495-12.112-14.495l-2.995-3.085c-2.243-2.8-7.658-3.426-11.223-0.454
			c-5.425,4.523-1.814,10.865-1.706,11.075c0.226,0.43,1.138,1.625,2.492,3.31c0,0,10.64,12.866,12.409,14.022
			c0.187,0.122,0.422,0.261,0.684,0.406c1.167,1.293,2.796,2.292,4.348,2.477l33.771,4.14c0.826,5.41,3.285,9.336,6.189,9.336
			c3.156,0,5.783-4.64,6.362-10.781H200c0,0,0-1.229,0-2.746s0-2.746,0-2.746H171.724z"/>
	</g>
</g>
<g id="sport-diving" display="none">
	<g display="inline">
		<path fill="#FFFFFF" d="M128.56,68.088l-1.335,2.828c-2.052,4.32-0.304,9.454,3.932,11.469l4.892,2.318
			c4.224,2.015,9.309,0.157,11.372-4.175l1.347-2.828c2.052-4.32,0.292-9.454-3.944-11.47l-4.866-2.33
			C135.72,61.886,130.622,63.768,128.56,68.088z"/>
		<path fill="#FFFFFF" d="M76.579,112.568c3.944,1.104,7.985-0.897,8.993-4.502l0.504-1.783c1.905-0.066,3.867-1.026,5.249-2.769
			l19.623-24.804c1.911,0.695,3.266,0.446,5.62-1.156c3.374-2.318,14.563-22.429,14.563-22.429c1.699-2.452,0.304-6.312-3.082-8.653
			c-3.374-2.318-7.488-2.221-9.163,0.242l-15.312,22.243L92.77,82.607l5.454-19.293c2.486-0.548,4.4-1.977,5.152-3.734l0.971-2.804
			l5.462-20.571l0.655-3.557c1.031-3.567-1.712-9.405-6.554-10.692c-4.855-1.286-9.394,2.501-10.753,5.098
			c-0.23,0.449-0.704,1.942-1.322,4.09l-5.571,21.045c-0.192,0.83-0.345,1.528-0.448,2.066c-0.433,0.472-0.759,1.017-0.936,1.636
			l-13.617,48.146C70.243,107.617,72.622,111.44,76.579,112.568z"/>
		<path fill="#FFFFFF" d="M175.755,143.268c-0.634-2.518-3.192-4.042-5.707-3.412l-23.622,5.947
			c0.247-0.796,0.285-1.668,0.067-2.535c-0.634-2.518-3.191-4.042-5.707-3.412l-21.664,5.454c0.177-0.72,0.185-1.491-0.009-2.26
			c-0.634-2.518-3.189-4.045-5.707-3.412L91.27,145.21c-0.002-0.369-0.049-0.743-0.143-1.117c-0.634-2.518-3.19-4.044-5.707-3.412
			l-22.151,5.577c0.746-1.077,1.041-2.457,0.696-3.827c-0.633-2.518-3.189-4.045-5.707-3.412l-28.205,7.1
			c-2.518,0.634-4.045,3.189-3.412,5.707c0.633,2.519,3.193,4.043,5.707,3.412l22.15-5.576c-0.746,1.076-1.041,2.457-0.696,3.827
			c0.537,2.133,2.452,3.555,4.556,3.555c0.38,0,0.766-0.046,1.151-0.143l22.138-5.573c0.002,0.369,0.049,0.743,0.143,1.117
			c0.634,2.519,3.19,4.044,5.707,3.412l21.664-5.453c-0.177,0.72-0.185,1.491,0.009,2.26c0.634,2.518,3.192,4.045,5.707,3.412
			l23.622-5.947c-0.247,0.796-0.285,1.668-0.067,2.535c0.634,2.518,3.192,4.045,5.707,3.412l28.205-7.101
			C174.861,148.34,176.389,145.785,175.755,143.268z"/>
	</g>
</g>
<g id="sport-equestrian-jumping" display="none">
	<g display="inline">
		<path fill="#FFFFFF" d="M93.595,55.192l3.143,0.801c4.798,1.229,9.646-1.593,10.832-6.283l1.37-5.425
			c1.219-4.691-1.724-9.475-6.505-10.701l-3.142-0.801c-4.798-1.211-9.647,1.6-10.843,6.292L87.058,44.5
			C85.871,49.189,88.805,53.98,93.595,55.192z"/>
		<path fill="#FFFFFF" d="M182.412,86.285l-29.347-46.929l4.629-5.435c0.929-1.09,0.797-2.727-0.293-3.656s-2.727-0.797-3.656,0.292
			l-37.774,44.375l-21.288-0.879c-0.048-0.144-0.097-0.284-0.147-0.41c-0.988-2.414-13.611-16.776-13.611-16.776l-2.786-2.929
			c-2.069-2.68-7.157-3.338-10.554-0.593c-5.161,4.18-1.83,10.198-1.748,10.396c0.206,0.404,1.038,1.558,2.309,3.142
			c0,0,8.151,10.135,12.045,14.463c0.972,1.944,4.067,3.812,7.037,4.279c1.032,0.253,2.095,0.355,3.106,0.198l15.804,0.662
			l-13.953,16.391H71.152c-2.543-1.192-4.886-2.286-5.695-2.669c0,0-16.786-8.015-18.954-8.277
			c-2.161-0.265-7.496,1.237-9.557,5.746c-0.844,1.832-0.934,3.611-0.627,5.2H12.23c-0.448,0-0.863,0.124-1.23,0.323
			c-0.808,0.439-1.363,1.285-1.363,2.27s0.555,1.83,1.363,2.27c0.368,0.199,0.783,0.323,1.23,0.323h26.842
			c0.025,0.025,0.051,0.054,0.076,0.078c1.604,1.567,21.402,10.233,26.098,12.276l-30.51,29.514
			c-2.604,2.541-2.456,6.919,0.355,9.805c2.786,2.901,7.174,3.19,9.778,0.659l39.813-38.562c2.023-1.954,2.226-5.17,0.731-7.864
			c-0.828-2.591-2.883-4.672-4.357-5.906h12.324c0.761,0,1.481-0.333,1.975-0.912l17.355-20.389l26.379,1.104
			c2.161,0.097,4.134-0.659,5.476-1.921l27.215,15.128c1.194,0.664,2.7,0.286,3.44-0.863l7.173-11.146
			C182.938,88.219,182.945,87.137,182.412,86.285z M172.176,95.359l-25.93-14.414c-0.551-2.734-3.262-4.882-6.611-5.034
			l-17.085-0.706l26.989-31.706l27.604,44.141L172.176,95.359z"/>
	</g>
</g>
<g id="sport-equestrian-eventing" display="none">
	<g display="inline">
		<path fill="#FFFFFF" d="M93.595,55.192l3.143,0.801c4.798,1.229,9.646-1.593,10.832-6.283l1.37-5.425
			c1.219-4.691-1.724-9.475-6.505-10.701l-3.142-0.801c-4.798-1.211-9.647,1.6-10.843,6.292L87.058,44.5
			C85.871,49.189,88.805,53.98,93.595,55.192z"/>
		<path fill="#FFFFFF" d="M182.412,86.285l-29.347-46.929l4.629-5.435c0.929-1.09,0.797-2.727-0.293-3.656s-2.727-0.797-3.656,0.292
			l-37.774,44.375l-21.288-0.879c-0.048-0.144-0.097-0.284-0.147-0.41c-0.988-2.414-13.611-16.776-13.611-16.776l-2.786-2.929
			c-2.069-2.68-7.157-3.338-10.554-0.593c-5.161,4.18-1.83,10.198-1.748,10.396c0.206,0.404,1.038,1.558,2.309,3.142
			c0,0,8.151,10.135,12.045,14.463c0.972,1.944,4.067,3.812,7.037,4.279c1.032,0.253,2.095,0.355,3.106,0.198l15.804,0.662
			l-13.953,16.391H71.152c-2.543-1.192-4.886-2.286-5.695-2.669c0,0-16.786-8.015-18.954-8.277
			c-2.161-0.265-7.496,1.237-9.557,5.746c-0.844,1.832-0.934,3.611-0.627,5.2H12.23c-0.448,0-0.863,0.124-1.23,0.323
			c-0.808,0.439-1.363,1.285-1.363,2.27s0.555,1.83,1.363,2.27c0.368,0.199,0.783,0.323,1.23,0.323h26.842
			c0.025,0.025,0.051,0.054,0.076,0.078c1.604,1.567,21.402,10.233,26.098,12.276l-30.51,29.514
			c-2.604,2.541-2.456,6.919,0.355,9.805c2.786,2.901,7.174,3.19,9.778,0.659l39.813-38.562c2.023-1.954,2.226-5.17,0.731-7.864
			c-0.828-2.591-2.883-4.672-4.357-5.906h12.324c0.761,0,1.481-0.333,1.975-0.912l17.355-20.389l26.379,1.104
			c2.161,0.097,4.134-0.659,5.476-1.921l27.215,15.128c1.194,0.664,2.7,0.286,3.44-0.863l7.173-11.146
			C182.938,88.219,182.945,87.137,182.412,86.285z M172.176,95.359l-25.93-14.414c-0.551-2.734-3.262-4.882-6.611-5.034
			l-17.085-0.706l26.989-31.706l27.604,44.141L172.176,95.359z"/>
	</g>
</g>
<g id="sport-equestrian-dressage" display="none">
	<g display="inline">
		<path fill="#FFFFFF" d="M93.595,55.192l3.143,0.801c4.798,1.229,9.646-1.593,10.832-6.283l1.37-5.425
			c1.219-4.691-1.724-9.475-6.505-10.701l-3.142-0.801c-4.798-1.211-9.647,1.6-10.843,6.292L87.058,44.5
			C85.871,49.189,88.805,53.98,93.595,55.192z"/>
		<path fill="#FFFFFF" d="M182.412,86.285l-29.347-46.929l4.629-5.435c0.929-1.09,0.797-2.727-0.293-3.656s-2.727-0.797-3.656,0.292
			l-37.774,44.375l-21.288-0.879c-0.048-0.144-0.097-0.284-0.147-0.41c-0.988-2.414-13.611-16.776-13.611-16.776l-2.786-2.929
			c-2.069-2.68-7.157-3.338-10.554-0.593c-5.161,4.18-1.83,10.198-1.748,10.396c0.206,0.404,1.038,1.558,2.309,3.142
			c0,0,8.151,10.135,12.045,14.463c0.972,1.944,4.067,3.812,7.037,4.279c1.032,0.253,2.095,0.355,3.106,0.198l15.804,0.662
			l-13.953,16.391H71.152c-2.543-1.192-4.886-2.286-5.695-2.669c0,0-16.786-8.015-18.954-8.277
			c-2.161-0.265-7.496,1.237-9.557,5.746c-0.844,1.832-0.934,3.611-0.627,5.2H12.23c-0.448,0-0.863,0.124-1.23,0.323
			c-0.808,0.439-1.363,1.285-1.363,2.27s0.555,1.83,1.363,2.27c0.368,0.199,0.783,0.323,1.23,0.323h26.842
			c0.025,0.025,0.051,0.054,0.076,0.078c1.604,1.567,21.402,10.233,26.098,12.276l-30.51,29.514
			c-2.604,2.541-2.456,6.919,0.355,9.805c2.786,2.901,7.174,3.19,9.778,0.659l39.813-38.562c2.023-1.954,2.226-5.17,0.731-7.864
			c-0.828-2.591-2.883-4.672-4.357-5.906h12.324c0.761,0,1.481-0.333,1.975-0.912l17.355-20.389l26.379,1.104
			c2.161,0.097,4.134-0.659,5.476-1.921l27.215,15.128c1.194,0.664,2.7,0.286,3.44-0.863l7.173-11.146
			C182.938,88.219,182.945,87.137,182.412,86.285z M172.176,95.359l-25.93-14.414c-0.551-2.734-3.262-4.882-6.611-5.034
			l-17.085-0.706l26.989-31.706l27.604,44.141L172.176,95.359z"/>
	</g>
</g>
<g id="sport-cycling-track" display="none">
	<g display="inline">
		<path fill="#FFFFFF" d="M116.724,52.414c2.952,4.245,8.708,5.349,12.861,2.464l4.801-3.339c4.151-2.886,5.127-8.666,2.175-12.911
			l-1.931-2.776c-2.949-4.247-8.707-5.352-12.86-2.465l-4.802,3.337c-4.151,2.884-5.123,8.668-2.175,12.914L116.724,52.414z"/>
		<path fill="#FFFFFF" d="M91.837,70.917c1.329-7.172-5.684-10.072-5.909-10.174c-0.473-0.216-2.033-0.623-4.288-1.149
			c0,0-18.946-4.381-21.203-4.187c-2.259,0.192-7.329,2.782-8.377,7.645c-1.049,4.862,2.389,8.469,4.675,9.838
			c1.327,0.795,8.092,2.26,13.538,3.35l-18.93,25.73c-2.248,3.059-1.327,7.556,2.057,10.04c3.385,2.488,7.951,2.023,10.199-1.035
			l27.463-37.374C91.625,72.833,91.871,71.905,91.837,70.917z"/>
		<path fill="#FFFFFF" d="M38.353,53.456c-5.422-0.026-9.14,5.155-9.853,8.252c-0.123,0.53-0.209,2.214-0.262,4.633L28.13,89.865
			c0.033,1.798,0.103,3.045,0.22,3.442c0.073,0.242,0.186,0.504,0.323,0.774l-0.918,43.071c-0.086,4.036,3.441,7.386,7.879,7.482
			c4.437,0.094,8.102-3.104,8.189-7.142l0.846-39.843c1.875-1.247,3.095-2.969,3.361-4.714l0.261-3.205l0.107-22.991l-0.268-3.885
			C48.229,58.841,43.773,53.479,38.353,53.456z"/>
		<path fill="#FFFFFF" d="M120.309,75.224l-0.128-0.001c-3.089,0-6.106,0.304-9.034,0.866c0.56-5.086,0.65-16.355,0.65-16.355
			l-0.078-4.228c0.271-3.515-3.193-7.604-7.747-7.866c-6.931-0.396-8.6,6.578-8.663,6.801c-0.128,0.459-0.275,1.93-0.435,4.05
			c0,0-1.013,16.379-0.519,18.398c0.066,0.271,0.166,0.609,0.295,0.986c-0.402,1.293-0.156,2.958,0.521,4.438
			c-13.441,8.295-22.434,23.051-22.478,39.847c-0.068,25.951,21.182,47.12,47.37,47.189h0.126c26.113,0,47.415-21.056,47.485-46.938
			C167.743,96.462,146.495,75.292,120.309,75.224z M120.189,163.932h-0.112c-23.2-0.062-42.026-18.794-41.966-41.758
			c0.041-15.326,8.513-28.731,21.044-35.928l29.716,18.486c3.426,2.141,7.686,1.503,9.515-1.425c1.83-2.928,0.538-7.035-2.887-9.176
			l-21.08-13.09c1.885-0.257,3.806-0.401,5.761-0.401h0.114c23.198,0.062,42.022,18.794,41.962,41.757
			C162.194,145.3,143.323,163.932,120.189,163.932z"/>
		<path fill="#FFFFFF" d="M2.058,80.584l-2.026-1.098L0,79.47v6.515c0.011,0.006,0.021,0.012,0.031,0.019
			c8.477,4.89,17.302,15.446,18.436,28.589c1.097,12.723-5.284,25.173-18.436,36.116c-0.01,0.01-0.021,0.018-0.031,0.027v7.32
			l0.12-0.095l1.847-1.46c19.994-15.793,23.099-31.774,22.182-42.399C22.803,98.487,12.083,86.017,2.058,80.584z"/>
	</g>
</g>
<g id="sport-cycling-road" display="none">
	<g display="inline">
		<path fill="#FFFFFF" d="M116.724,52.414c2.952,4.245,8.708,5.349,12.861,2.464l4.801-3.339c4.151-2.886,5.127-8.666,2.175-12.911
			l-1.931-2.776c-2.949-4.247-8.707-5.352-12.86-2.465l-4.802,3.337c-4.151,2.884-5.123,8.668-2.175,12.914L116.724,52.414z"/>
		<path fill="#FFFFFF" d="M91.837,70.917c1.329-7.172-5.684-10.072-5.909-10.174c-0.473-0.216-2.033-0.623-4.288-1.149
			c0,0-18.946-4.381-21.203-4.187c-2.259,0.192-7.329,2.782-8.377,7.645c-1.049,4.862,2.389,8.469,4.675,9.838
			c1.327,0.795,8.092,2.26,13.538,3.35l-18.93,25.73c-2.248,3.059-1.327,7.556,2.057,10.04c3.385,2.488,7.951,2.023,10.199-1.035
			l27.463-37.374C91.625,72.833,91.871,71.905,91.837,70.917z"/>
		<path fill="#FFFFFF" d="M38.353,53.456c-5.422-0.026-9.14,5.155-9.853,8.252c-0.123,0.53-0.209,2.214-0.262,4.633L28.13,89.865
			c0.033,1.798,0.103,3.045,0.22,3.442c0.073,0.242,0.186,0.504,0.323,0.774l-0.918,43.071c-0.086,4.036,3.441,7.386,7.879,7.482
			c4.437,0.094,8.102-3.104,8.189-7.142l0.846-39.843c1.875-1.247,3.095-2.969,3.361-4.714l0.261-3.205l0.107-22.991l-0.268-3.885
			C48.229,58.841,43.773,53.479,38.353,53.456z"/>
		<path fill="#FFFFFF" d="M120.309,75.224l-0.128-0.001c-3.089,0-6.106,0.304-9.034,0.866c0.56-5.086,0.65-16.355,0.65-16.355
			l-0.078-4.228c0.271-3.515-3.193-7.604-7.747-7.866c-6.931-0.396-8.6,6.578-8.663,6.801c-0.128,0.459-0.275,1.93-0.435,4.05
			c0,0-1.013,16.379-0.519,18.398c0.066,0.271,0.166,0.609,0.295,0.986c-0.402,1.293-0.156,2.958,0.521,4.438
			c-13.441,8.295-22.434,23.051-22.478,39.847c-0.068,25.951,21.182,47.12,47.37,47.189h0.126c26.113,0,47.415-21.056,47.485-46.938
			C167.743,96.462,146.495,75.292,120.309,75.224z M120.189,163.932h-0.112c-23.2-0.062-42.026-18.794-41.966-41.758
			c0.041-15.326,8.513-28.731,21.044-35.928l29.716,18.486c3.426,2.141,7.686,1.503,9.515-1.425c1.83-2.928,0.538-7.035-2.887-9.176
			l-21.08-13.09c1.885-0.257,3.806-0.401,5.761-0.401h0.114c23.198,0.062,42.022,18.794,41.962,41.757
			C162.194,145.3,143.323,163.932,120.189,163.932z"/>
		<path fill="#FFFFFF" d="M2.058,80.584l-2.026-1.098L0,79.47v6.515c0.011,0.006,0.021,0.012,0.031,0.019
			c8.477,4.89,17.302,15.446,18.436,28.589c1.097,12.723-5.284,25.173-18.436,36.116c-0.01,0.01-0.021,0.018-0.031,0.027v7.32
			l0.12-0.095l1.847-1.46c19.994-15.793,23.099-31.774,22.182-42.399C22.803,98.487,12.083,86.017,2.058,80.584z"/>
	</g>
</g>
<g id="sport-cycling-mountain-bike" display="none">
	<g display="inline">
		<path fill="#FFFFFF" d="M116.724,52.414c2.952,4.245,8.708,5.349,12.861,2.464l4.801-3.339c4.151-2.886,5.127-8.666,2.175-12.911
			l-1.931-2.776c-2.949-4.247-8.707-5.352-12.86-2.465l-4.802,3.337c-4.151,2.884-5.123,8.668-2.175,12.914L116.724,52.414z"/>
		<path fill="#FFFFFF" d="M91.837,70.917c1.329-7.172-5.684-10.072-5.909-10.174c-0.473-0.216-2.033-0.623-4.288-1.149
			c0,0-18.946-4.381-21.203-4.187c-2.259,0.192-7.329,2.782-8.377,7.645c-1.049,4.862,2.389,8.469,4.675,9.838
			c1.327,0.795,8.092,2.26,13.538,3.35l-18.93,25.73c-2.248,3.059-1.327,7.556,2.057,10.04c3.385,2.488,7.951,2.023,10.199-1.035
			l27.463-37.374C91.625,72.833,91.871,71.905,91.837,70.917z"/>
		<path fill="#FFFFFF" d="M38.353,53.456c-5.422-0.026-9.14,5.155-9.853,8.252c-0.123,0.53-0.209,2.214-0.262,4.633L28.13,89.865
			c0.033,1.798,0.103,3.045,0.22,3.442c0.073,0.242,0.186,0.504,0.323,0.774l-0.918,43.071c-0.086,4.036,3.441,7.386,7.879,7.482
			c4.437,0.094,8.102-3.104,8.189-7.142l0.846-39.843c1.875-1.247,3.095-2.969,3.361-4.714l0.261-3.205l0.107-22.991l-0.268-3.885
			C48.229,58.841,43.773,53.479,38.353,53.456z"/>
		<path fill="#FFFFFF" d="M120.309,75.224l-0.128-0.001c-3.089,0-6.106,0.304-9.034,0.866c0.56-5.086,0.65-16.355,0.65-16.355
			l-0.078-4.228c0.271-3.515-3.193-7.604-7.747-7.866c-6.931-0.396-8.6,6.578-8.663,6.801c-0.128,0.459-0.275,1.93-0.435,4.05
			c0,0-1.013,16.379-0.519,18.398c0.066,0.271,0.166,0.609,0.295,0.986c-0.402,1.293-0.156,2.958,0.521,4.438
			c-13.441,8.295-22.434,23.051-22.478,39.847c-0.068,25.951,21.182,47.12,47.37,47.189h0.126c26.113,0,47.415-21.056,47.485-46.938
			C167.743,96.462,146.495,75.292,120.309,75.224z M120.189,163.932h-0.112c-23.2-0.062-42.026-18.794-41.966-41.758
			c0.041-15.326,8.513-28.731,21.044-35.928l29.716,18.486c3.426,2.141,7.686,1.503,9.515-1.425c1.83-2.928,0.538-7.035-2.887-9.176
			l-21.08-13.09c1.885-0.257,3.806-0.401,5.761-0.401h0.114c23.198,0.062,42.022,18.794,41.962,41.757
			C162.194,145.3,143.323,163.932,120.189,163.932z"/>
		<path fill="#FFFFFF" d="M2.058,80.584l-2.026-1.098L0,79.47v6.515c0.011,0.006,0.021,0.012,0.031,0.019
			c8.477,4.89,17.302,15.446,18.436,28.589c1.097,12.723-5.284,25.173-18.436,36.116c-0.01,0.01-0.021,0.018-0.031,0.027v7.32
			l0.12-0.095l1.847-1.46c19.994-15.793,23.099-31.774,22.182-42.399C22.803,98.487,12.083,86.017,2.058,80.584z"/>
	</g>
</g>
<g id="sport-cycling-BMX" display="none">
	<g display="inline">
		<path fill="#FFFFFF" d="M116.724,52.414c2.952,4.245,8.708,5.349,12.861,2.464l4.801-3.339c4.151-2.886,5.127-8.666,2.175-12.911
			l-1.931-2.776c-2.949-4.247-8.707-5.352-12.86-2.465l-4.802,3.337c-4.151,2.884-5.123,8.668-2.175,12.914L116.724,52.414z"/>
		<path fill="#FFFFFF" d="M91.837,70.917c1.329-7.172-5.684-10.072-5.909-10.174c-0.473-0.216-2.033-0.623-4.288-1.149
			c0,0-18.946-4.381-21.203-4.187c-2.259,0.192-7.329,2.782-8.377,7.645c-1.049,4.862,2.389,8.469,4.675,9.838
			c1.327,0.795,8.092,2.26,13.538,3.35l-18.93,25.73c-2.248,3.059-1.327,7.556,2.057,10.04c3.385,2.488,7.951,2.023,10.199-1.035
			l27.463-37.374C91.625,72.833,91.871,71.905,91.837,70.917z"/>
		<path fill="#FFFFFF" d="M38.353,53.456c-5.422-0.026-9.14,5.155-9.853,8.252c-0.123,0.53-0.209,2.214-0.262,4.633L28.13,89.865
			c0.033,1.798,0.103,3.045,0.22,3.442c0.073,0.242,0.186,0.504,0.323,0.774l-0.918,43.071c-0.086,4.036,3.441,7.386,7.879,7.482
			c4.437,0.094,8.102-3.104,8.189-7.142l0.846-39.843c1.875-1.247,3.095-2.969,3.361-4.714l0.261-3.205l0.107-22.991l-0.268-3.885
			C48.229,58.841,43.773,53.479,38.353,53.456z"/>
		<path fill="#FFFFFF" d="M120.309,75.224l-0.128-0.001c-3.089,0-6.106,0.304-9.034,0.866c0.56-5.086,0.65-16.355,0.65-16.355
			l-0.078-4.228c0.271-3.515-3.193-7.604-7.747-7.866c-6.931-0.396-8.6,6.578-8.663,6.801c-0.128,0.459-0.275,1.93-0.435,4.05
			c0,0-1.013,16.379-0.519,18.398c0.066,0.271,0.166,0.609,0.295,0.986c-0.402,1.293-0.156,2.958,0.521,4.438
			c-13.441,8.295-22.434,23.051-22.478,39.847c-0.068,25.951,21.182,47.12,47.37,47.189h0.126c26.113,0,47.415-21.056,47.485-46.938
			C167.743,96.462,146.495,75.292,120.309,75.224z M120.189,163.932h-0.112c-23.2-0.062-42.026-18.794-41.966-41.758
			c0.041-15.326,8.513-28.731,21.044-35.928l29.716,18.486c3.426,2.141,7.686,1.503,9.515-1.425c1.83-2.928,0.538-7.035-2.887-9.176
			l-21.08-13.09c1.885-0.257,3.806-0.401,5.761-0.401h0.114c23.198,0.062,42.022,18.794,41.962,41.757
			C162.194,145.3,143.323,163.932,120.189,163.932z"/>
		<path fill="#FFFFFF" d="M2.058,80.584l-2.026-1.098L0,79.47v6.515c0.011,0.006,0.021,0.012,0.031,0.019
			c8.477,4.89,17.302,15.446,18.436,28.589c1.097,12.723-5.284,25.173-18.436,36.116c-0.01,0.01-0.021,0.018-0.031,0.027v7.32
			l0.12-0.095l1.847-1.46c19.994-15.793,23.099-31.774,22.182-42.399C22.803,98.487,12.083,86.017,2.058,80.584z"/>
	</g>
</g>
<g id="sport-canoe-sprint" display="none">
	<g display="inline">
		<path fill="#FFFFFF" d="M191.42,128.925c-0.43-1.712-1.781-2.937-3.387-3.319c-0.692-0.166-1.43-0.191-2.166-0.005l-21.079,5.295
			c0.165-0.694,0.171-1.437-0.016-2.177c-0.618-2.45-3.105-3.935-5.556-3.318l-21.548,5.432c0-0.369-0.046-0.744-0.14-1.116
			c-0.619-2.452-3.109-3.933-5.557-3.318l-10.361,2.614l43.803-18.361l1.245-18.418l-79.418,15.875l8.622-10.373
			c1.456-0.541,2.582-1.565,3.213-2.795c2.845,1.349,5.95,0.866,7.085-1.211c0.994-1.846,0.128-4.332-1.953-6.033l19.711-23.713
			c2.273,0.692,4.633-0.475,6.438-2.685l23.477-26.291c2.312-2.801,1.926-6.944-0.858-9.271l-1.432-1.2
			c-2.813-2.327-6.959-1.956-9.294,0.843l-21.574,27.884c-1.826,2.193-2.551,4.73-1.459,6.831L98.842,84.604L70.798,69.315
			c-1.965-1.045-4.517-0.155-5.707,2.003c-1.19,2.21-0.572,4.832,1.384,5.899l22.217,12.104l-22.691,7.345L55.558,79.018
			c-1.788-3.023-5.622-3.989-8.561-2.195c-2.931,1.801-3.858,5.7-2.073,8.73l11.753,19.849c0.697,1.175,1.793,1.977,3.052,2.355
			c0.959,0.728,2.072,1.025,3.097,0.7l22.161-7.186l-7.261,8.735l-65.217,13.037c-0.413,0.082-0.773,0.273-1.075,0.524
			c-0.665,0.555-1.021,1.438-0.839,2.347c0.114,0.57,0.424,1.045,0.839,1.389c0.547,0.455,1.279,0.676,2.033,0.526l54.328-10.859
			c-0.273,0.262-0.539,0.541-0.793,0.843L43.54,144.112c-2.334,2.799-1.948,6.983,0.858,9.286l1.431,1.223
			c2.792,2.305,6.959,1.926,9.271-0.881l21.574-27.877c1.819-2.17,2.561-4.707,1.47-6.813l4.133-4.974l79.079-15.807l-0.611,9.045
			L111.1,128.126c-0.617-2.45-3.106-3.94-5.553-3.321l-27.458,6.896c-2.451,0.616-3.939,3.104-3.324,5.554
			c0.616,2.452,3.101,3.944,5.554,3.324l21.548-5.413c-0.722,1.048-1.006,2.389-0.671,3.718c0.524,2.075,2.388,3.458,4.434,3.458
			c0.37,0,0.748-0.045,1.124-0.14l21.545-5.438c0.002,0.366,0.047,0.74,0.141,1.112c0.618,2.452,3.109,3.937,5.556,3.32
			l21.073-5.312c-0.164,0.69-0.168,1.431,0.017,2.166c0.614,2.452,3.104,3.939,5.554,3.324l27.395-6.881l0.062-0.016
			C190.548,133.862,192.035,131.375,191.42,128.925z"/>
		<path fill="#FFFFFF" d="M46.618,66.816c2.622,3.829,7.887,4.734,11.776,2.05l2.552-1.756c3.883-2.667,4.934-7.925,2.337-11.699
			l-3.033-4.4c-2.622-3.797-7.887-4.694-11.776-2.026l-2.544,1.731c-3.889,2.668-4.934,7.927-2.312,11.723L46.618,66.816z"/>
	</g>
</g>
<g id="sport-canoe-slalom" display="none">
	<g display="inline">
		<path fill="#FFFFFF" d="M191.42,128.925c-0.43-1.712-1.781-2.937-3.387-3.319c-0.692-0.166-1.43-0.191-2.166-0.005l-21.079,5.295
			c0.165-0.694,0.171-1.437-0.016-2.177c-0.618-2.45-3.105-3.935-5.556-3.318l-21.548,5.432c0-0.369-0.046-0.744-0.14-1.116
			c-0.619-2.452-3.109-3.933-5.557-3.318l-10.361,2.614l43.803-18.361l1.245-18.418l-79.418,15.875l8.622-10.373
			c1.456-0.541,2.582-1.565,3.213-2.795c2.845,1.349,5.95,0.866,7.085-1.211c0.994-1.846,0.128-4.332-1.953-6.033l19.711-23.713
			c2.273,0.692,4.633-0.475,6.438-2.685l23.477-26.291c2.312-2.801,1.926-6.944-0.858-9.271l-1.432-1.2
			c-2.813-2.327-6.959-1.956-9.294,0.843l-21.574,27.884c-1.826,2.193-2.551,4.73-1.459,6.831L98.842,84.604L70.798,69.315
			c-1.965-1.045-4.517-0.155-5.707,2.003c-1.19,2.21-0.572,4.832,1.384,5.899l22.217,12.104l-22.691,7.345L55.558,79.018
			c-1.788-3.023-5.622-3.989-8.561-2.195c-2.931,1.801-3.858,5.7-2.073,8.73l11.753,19.849c0.697,1.175,1.793,1.977,3.052,2.355
			c0.959,0.728,2.072,1.025,3.097,0.7l22.161-7.186l-7.261,8.735l-65.217,13.037c-0.413,0.082-0.773,0.273-1.075,0.524
			c-0.665,0.555-1.021,1.438-0.839,2.347c0.114,0.57,0.424,1.045,0.839,1.389c0.547,0.455,1.279,0.676,2.033,0.526l54.328-10.859
			c-0.273,0.262-0.539,0.541-0.793,0.843L43.54,144.112c-2.334,2.799-1.948,6.983,0.858,9.286l1.431,1.223
			c2.792,2.305,6.959,1.926,9.271-0.881l21.574-27.877c1.819-2.17,2.561-4.707,1.47-6.813l4.133-4.974l79.079-15.807l-0.611,9.045
			L111.1,128.126c-0.617-2.45-3.106-3.94-5.553-3.321l-27.458,6.896c-2.451,0.616-3.939,3.104-3.324,5.554
			c0.616,2.452,3.101,3.944,5.554,3.324l21.548-5.413c-0.722,1.048-1.006,2.389-0.671,3.718c0.524,2.075,2.388,3.458,4.434,3.458
			c0.37,0,0.748-0.045,1.124-0.14l21.545-5.438c0.002,0.366,0.047,0.74,0.141,1.112c0.618,2.452,3.109,3.937,5.556,3.32
			l21.073-5.312c-0.164,0.69-0.168,1.431,0.017,2.166c0.614,2.452,3.104,3.939,5.554,3.324l27.395-6.881l0.062-0.016
			C190.548,133.862,192.035,131.375,191.42,128.925z"/>
		<path fill="#FFFFFF" d="M46.618,66.816c2.622,3.829,7.887,4.734,11.776,2.05l2.552-1.756c3.883-2.667,4.934-7.925,2.337-11.699
			l-3.033-4.4c-2.622-3.797-7.887-4.694-11.776-2.026l-2.544,1.731c-3.889,2.668-4.934,7.927-2.312,11.723L46.618,66.816z"/>
	</g>
</g>
<g id="sport-boxing" display="none">
	<g display="inline">
		<path fill="#FFFFFF" d="M98.127,15.471l4.002-0.153c6.112-0.237,11.254,4.413,11.487,10.385l0.271,6.91
			c0.231,5.974-4.542,11.006-10.656,11.242l-3.999,0.156c-6.115,0.235-11.259-4.415-11.491-10.389l-0.268-6.908
			C87.246,20.743,92.017,15.708,98.127,15.471z M71.022,44.948c3.642-3.954,9.389-4.575,13.444-0.734l6.893,5.827L109.9,67.369
			c3.084-5.075,6.734-11.035,9.896-16.074c-1.899-3.372-1.89-7.704,0.402-11.232l3.771-5.794c3.257-5.011,9.877-6.487,14.781-3.296
			l3.207,2.085c4.905,3.19,6.232,9.837,2.975,14.849l-3.769,5.797c-1.97,3.028-5.167,4.753-8.469,4.948L115.89,86.397
			c-2.251,3.721-6.941,5-10.477,2.858c-0.602-0.364-1.103-0.825-1.557-1.32c-0.462-0.226-0.93-0.498-1.406-0.84
			c-2.604-1.868-3.722-3.16-5.366-4.616L77.509,64.462c-2.45-2.311-6.836-6.587-7.296-7.174
			C67.506,53.858,67.383,48.903,71.022,44.948z M76.898,138.119l-28.462,43.143c-2.306,3.492-7.618,4.053-11.87,1.248
			c-4.251-2.806-5.829-7.91-3.523-11.406l23.398-35.464c-0.187-0.34-0.335-0.669-0.431-0.976c-0.144-0.451-0.282-6.329-0.347-8.188
			l-0.197-23.285c0.026-2.702,0.1-4.582,0.235-5.176c0.784-3.469,5.04-9.31,11.355-9.363c6.314-0.051,11.918,5.481,11.86,9.966
			l0.041,4.72l0.255,30.524C79.261,135.25,78.375,136.78,76.898,138.119z M133.994,123.491
			c-1.902,4.578-26.073,56.388-26.073,56.388c-1.987,4.289-7.346,6.035-11.968,3.894c-4.623-2.14-6.759-7.352-4.771-11.646
			l21.136-45.647c-0.992-0.38-1.98-0.84-2.949-1.402l-17.269-11.483c-2.212-1.563-3.719-2.695-4.13-3.149
			c-2.407-2.629-4.777-9.487-1.199-14.747c3.579-5.26,11.352-6.744,15.014-4.138l3.909,2.661c0,0,16.265,10.703,21.242,14.322
			c0.257,0.188,0.489,0.382,0.716,0.58C132.266,111.274,135.892,118.918,133.994,123.491z M165.352,67.359l-4.358,4.7
			c-2.595,2.798-6.414,3.725-9.88,2.821l-15.936,15.064c-3.161,2.988-8.061,2.934-10.948-0.119
			c-2.888-3.054-2.664-7.949,0.496-10.937c0,0,8.397-8.023,16.221-15.268c-0.265-2.753,0.558-5.592,2.579-7.772l4.361-4.696
			c3.768-4.062,10.138-4.279,14.222-0.49l2.673,2.479C168.865,56.934,169.123,63.298,165.352,67.359z"/>
		<path fill="#FFFFFF" d="M78.917,98.617c0.057-4.484-5.546-10.018-11.861-9.966c-6.314,0.054-10.571,5.894-11.355,9.363
			c-0.135,0.592-0.209,2.474-0.235,5.175l0.197,23.285c0.065,1.86,0.204,7.736,0.348,8.189c0.097,0.306,0.243,0.633,0.43,0.976
			l-23.398,35.464c-2.306,3.496-0.728,8.6,3.523,11.406c4.252,2.805,9.564,2.244,11.87-1.248l28.462-43.145
			c1.478-1.338,2.364-2.869,2.314-4.258l-0.256-30.524L78.917,98.617z"/>
		<path fill="#FFFFFF" d="M127.65,109.126c-0.227-0.196-0.458-0.392-0.716-0.581c-4.977-3.619-21.241-14.322-21.241-14.322
			l-3.909-2.661c-3.663-2.605-11.437-1.121-15.016,4.138c-3.578,5.261-1.207,12.119,1.199,14.747
			c0.411,0.453,1.918,1.586,4.13,3.151l17.271,11.481c0.969,0.562,1.957,1.022,2.948,1.402L91.179,172.13
			c-1.986,4.292,0.148,9.505,4.771,11.646c4.624,2.143,9.982,0.396,11.971-3.894c0,0,24.171-51.81,26.073-56.388
			C135.892,118.918,132.266,111.274,127.65,109.126z"/>
		<path fill="#FFFFFF" d="M99.235,44.011l3.999-0.156c6.114-0.236,10.888-5.269,10.654-11.242l-0.271-6.91
			c-0.231-5.972-5.374-10.622-11.487-10.385l-4,0.153c-6.11,0.237-10.882,5.271-10.651,11.243l0.267,6.908
			C87.975,39.596,93.12,44.247,99.235,44.011z"/>
		<path fill="#FFFFFF" d="M77.507,64.462l19.575,18.017c1.646,1.456,2.764,2.748,5.367,4.616c0.476,0.342,0.942,0.614,1.405,0.84
			c0.453,0.495,0.954,0.956,1.556,1.32c3.534,2.142,8.229,0.862,10.479-2.858l16.806-27.746c3.304-0.195,6.501-1.92,8.471-4.948
			l3.769-5.797c3.258-5.012,1.928-11.658-2.977-14.849l-3.207-2.085c-4.902-3.191-11.522-1.715-14.779,3.296l-3.773,5.794
			c-2.292,3.528-2.302,7.86-0.4,11.232c-3.163,5.039-6.812,10.999-9.898,16.074L91.358,50.041l-6.894-5.827
			c-4.056-3.841-9.802-3.22-13.443,0.734c-3.64,3.955-3.517,8.91-0.812,12.341C70.672,57.875,75.058,62.152,77.507,64.462z"/>
		<path fill="#FFFFFF" d="M162.108,50.664c-4.084-3.788-10.454-3.57-14.224,0.491l-4.359,4.696
			c-2.021,2.181-2.847,5.019-2.583,7.771c-7.82,7.244-16.219,15.269-16.219,15.269c-3.16,2.986-3.382,7.883-0.496,10.937
			c2.886,3.052,7.787,3.106,10.95,0.119l15.933-15.065c3.466,0.903,7.286-0.024,9.883-2.821l4.356-4.699
			c3.773-4.061,3.513-10.425-0.572-14.216L162.108,50.664z"/>
	</g>
</g>
<g id="sport-beach-volleyball" display="none">
	<g display="inline">
		<path fill="#FFFFFF" d="M37.003,43.79c3.366,3.365,8.891,3.298,12.338-0.15l2.255-2.255c3.449-3.449,3.515-8.972,0.149-12.339
			l-3.894-3.893c-3.365-3.366-8.889-3.299-12.339,0.149l-2.254,2.255c-3.448,3.448-3.517,8.972-0.149,12.339L37.003,43.79z"/>
		<path fill="#FFFFFF" d="M62.888,129.215c0.504-1.818,0.321-3.847-0.688-5.695l-11.224-20.584
			c-1.834-3.365-6.468-4.578-10.351-2.706c-3.884,1.871-5.544,6.115-3.709,9.48l11.223,20.584c1.008,1.849,2.651,3.173,4.516,3.85
			l18.779,34.441c1.889,3.467,5.712,5.172,8.538,3.812c2.824-1.361,3.582-5.275,1.693-8.739L62.888,129.215z"/>
		<path fill="#FFFFFF" d="M91.588,129.214c0.503-1.818,0.319-3.846-0.688-5.694l-11.224-20.584
			c-1.835-3.365-6.469-4.578-10.352-2.706c-3.883,1.871-5.544,6.115-3.709,9.48l11.224,20.584c1.008,1.849,2.65,3.172,4.515,3.85
			l18.78,34.441c1.889,3.467,5.711,5.172,8.537,3.812c2.824-1.361,3.583-5.275,1.694-8.739L91.588,129.214z"/>
		<path fill="#FFFFFF" d="M44.639,59.146c1.385,4.056,5.515,6.315,9.227,5.049l24.396-8.328c0.003-0.001,0.006-0.002,0.009-0.004
			l25.368-8.66c2.978-1.016,4.575-4.233,3.567-7.185c-1.005-2.951-4.237-4.52-7.216-3.502l-20.047,6.843
			c-1.803-2.032-4.369-2.971-6.694-2.177l-24.397,8.328C45.14,50.777,43.254,55.091,44.639,59.146z"/>
		<path fill="#FFFFFF" d="M179.284,67.984H96.146l13.979-7.732c2.755-1.524,3.763-4.973,2.253-7.7
			c-1.509-2.729-4.966-3.706-7.72-2.184L86.122,60.623c-2.132-1.685-4.821-2.158-6.971-0.97l-15.063,8.331H22.062
			c-1.392,0-2.521,1.129-2.521,2.521s1.129,2.521,2.521,2.521h33.29c-2.423,2.211-3.014,6.081-1.216,9.331
			c2.075,3.75,6.537,5.252,9.969,3.354l22.558-12.479c0.001-0.001,0.002-0.001,0.004-0.003l0.368-0.203h92.25
			c1.392,0,2.521-1.129,2.521-2.521S180.676,67.984,179.284,67.984z"/>
		<circle fill="#FFFFFF" cx="124.143" cy="37.401" r="11.48"/>
	</g>
</g>
<g id="sport-basketball" display="none">
	<g display="inline">
		<path fill="#FFFFFF" d="M136.146,102.017c1.286,4.181,5.228,6.679,8.801,5.577c3.574-1.1,5.428-5.38,4.142-9.562l-5.648-18.345
			c0.244-0.924,0.365-1.775,0.394-2.427c0.105-2.455-5.549-17.3-5.549-17.3l-1.728-4.242c-1.095-3.657-6.19-6.439-10.897-4.927
			c-7.159,2.3-6.126,10.001-6.103,10.251c0.05,0.515,0.474,2.059,1.139,4.262c0,0,4.62,14.633,5.856,16.316
			c0.64,0.872,2.341,2.552,4.484,3.76L136.146,102.017z"/>
		<path fill="#FFFFFF" d="M110.331,43.97l3.449,1.482c5.271,2.269,11.312-0.005,13.498-5.077l2.524-5.868
			c2.182-5.074-0.319-11.023-5.59-13.293l-3.451-1.484c-5.269-2.269-11.314,0.004-13.498,5.077l-2.526,5.867
			C102.557,35.746,105.061,41.698,110.331,43.97z"/>
		<path fill="#FFFFFF" d="M66.87,56.919c2.341,1.239,19.862,3.173,19.862,3.173l4.562,0.382c3.761,0.68,8.546-2.604,9.33-7.482
			c1.193-7.426-6.14-9.994-6.372-10.086c-0.482-0.188-2.052-0.51-4.317-0.915c0,0-17.539-2.896-19.771-2.586
			c-0.991,0.139-2.767,0.559-4.502,1.407L36.827,36.73c-4.33-0.612-8.266,1.893-8.788,5.596c-0.523,3.705,2.565,7.2,6.898,7.812
			l28.729,4.054C64.762,55.474,65.966,56.44,66.87,56.919z"/>
		<path fill="#FFFFFF" d="M111.748,84.565c-5.481-1.843-10.934,2.005-12.661,4.811c-0.297,0.481-0.93,2.104-1.769,4.465
			l-7.756,23.086c-0.55,1.776-0.882,3.028-0.891,3.458c-0.021,1.003,0.373,2.416,1.197,3.868l-18.728,47.673
			c-1.601,4.072,0.73,8.797,5.205,10.556c4.477,1.759,9.397-0.118,10.997-4.188l19.461-49.54c0.84-0.602,1.501-1.326,1.92-2.138
			l1.304-3.063l7.578-22.562l0.992-3.909C120.001,93.168,117.23,86.407,111.748,84.565z"/>
		<path fill="#FFFFFF" d="M77.026,127.147l1.71-2.856l10.59-21.314l1.517-3.737c1.926-3.684,0.104-10.761-5.074-13.334
			c-5.179-2.573-11.104,0.492-13.199,3.033c-0.36,0.437-1.208,1.96-2.364,4.183L59.37,114.93c-0.789,1.687-0.94,4.227-0.9,4.652
			c0.292,3.163,0.902,6.446,6.084,9.02C69.731,131.178,75.017,130.003,77.026,127.147z"/>
		<ellipse fill="#FFFFFF" cx="151.971" cy="126.514" rx="16.505" ry="16.158"/>
	</g>
</g>
<g id="sport-badminton" display="none">
	<g display="inline">
		<path fill="#FFFFFF" d="M100.525,53.562l3.023,1.304c4.628,1.989,9.929-0.005,11.846-4.456l2.216-5.151
			c1.915-4.45-0.282-9.672-4.907-11.664l-3.026-1.301c-4.625-1.99-9.93,0.003-11.844,4.454l-2.216,5.149
			C93.7,46.349,95.901,51.572,100.525,53.562z"/>
		<path fill="#FFFFFF" d="M62.077,64.929c2.054,1.085,17.428,2.783,17.428,2.783l4.005,0.333c3.3,0.598,7.501-2.282,8.187-6.563
			c1.048-6.516-5.386-8.771-5.592-8.852c-0.422-0.164-1.798-0.447-3.787-0.803c0,0-15.393-2.541-17.348-2.268
			c-0.87,0.12-2.427,0.487-3.949,1.233L35.715,47.21c-3.802-0.535-7.255,1.663-7.712,4.912c-0.46,3.251,2.251,6.319,6.052,6.855
			l25.213,3.557C60.228,63.66,61.284,64.508,62.077,64.929z"/>
		<path fill="#FFFFFF" d="M101.767,89.188c-4.811-1.616-9.595,1.76-11.11,4.22c-0.262,0.423-0.814,1.849-1.555,3.921L82.3,117.584
			c-0.482,1.562-0.775,2.66-0.783,3.034c-0.018,0.88,0.327,2.121,1.052,3.396l-16.436,41.834c-1.404,3.575,0.642,7.72,4.569,9.263
			c3.926,1.543,8.245-0.105,9.65-3.676l17.077-43.473c0.736-0.526,1.317-1.164,1.685-1.877l1.144-2.685l6.65-19.799l0.867-3.429
			C109.01,96.736,106.577,90.804,101.767,89.188z"/>
		<path fill="#FFFFFF" d="M71.297,126.554l1.501-2.507l9.293-18.702l1.331-3.281c1.689-3.233,0.091-9.441-4.451-11.7
			c-4.547-2.259-9.745,0.433-11.585,2.663c-0.314,0.381-1.06,1.719-2.072,3.669l-9.509,19.138c-0.692,1.48-0.826,3.709-0.79,4.083
			c0.256,2.775,0.792,5.655,5.339,7.914C64.896,130.09,69.534,129.062,71.297,126.554z"/>
		<path fill="#FFFFFF" d="M172.714,92.486c-7.52,0-13.694,4.936-14.188,11.158h-24.261c0.032-0.857-0.077-1.751-0.351-2.64
			l-4.955-16.101c0.214-0.811,0.32-1.557,0.345-2.128c0.091-2.152-4.867-15.18-4.867-15.18l-1.519-3.722
			c-0.961-3.212-5.432-5.651-9.562-4.326c-6.282,2.021-5.376,8.777-5.354,8.997c0.045,0.451,0.415,1.807,1,3.741
			c0,0,4.055,12.84,5.139,14.315c0.562,0.766,2.055,2.239,3.935,3.3l4.483,14.598c1.131,3.67,4.587,5.861,7.725,4.896
			c1.336-0.41,2.395-1.33,3.086-2.532h25.417c1.331,5.444,7.07,9.55,13.928,9.55c7.839,0,14.216-5.367,14.216-11.965
			C186.93,97.853,180.553,92.486,172.714,92.486z M172.714,113.194c-6.065,0-11-3.924-11-8.746c0-4.821,4.935-8.743,11-8.743
			c6.063,0,10.997,3.922,10.997,8.743C183.711,109.271,178.777,113.194,172.714,113.194z"/>
	</g>
</g>
<g id="sport-athletics" display="none">
	<g display="inline">
		<path fill="#FFFFFF" d="M184.454,80.66c-1.646-3.597-5.46-5.385-8.491-3.979L148.25,89.477l-6.983-8.128l-2.482-2.908
			c-2.328-2.805-8.671-3.324-12.521-0.014c-3.877,3.317-3.439,9.153-2.103,11.713c0.22,0.43,1.175,1.639,2.56,3.332l9.079,10.572
			c0.859,0.942,1.487,1.557,1.741,1.694c0.141,0.07,0.309,0.129,0.49,0.182c1.717,0.945,3.717,0.971,4.964,1.033
			c1.979,0.088,39.008-17.23,39.008-17.23C185.034,88.325,186.133,84.284,184.454,80.66z"/>
		<path fill="#FFFFFF" d="M111.625,93.125c-0.094-0.054-0.186-0.112-0.282-0.152l-2.485-1.12l-18.307-8.198l-3.364-1.508
			c-3.175-1.488-8.969,0.798-11.024,5.419c-2.074,4.621,0.628,9.631,2.84,11.337c0.376,0.3,1.687,0.949,3.598,1.857l12.239,5.475
			l-23.673,22.641c-2.655,2.546-2.579,6.942,0.145,9.801c2.75,2.875,7.132,3.142,9.802,0.595c0,0,31.097-29.577,33.685-32.271
			c2.607-2.704,2.048-9.188-0.703-12.048C113.207,94.026,112.393,93.436,111.625,93.125z"/>
		<path fill="#FFFFFF" d="M71.316,114.834l0.088-21.349l0.028-3.686c0.094-3.502-4.178-7.885-9.058-7.897
			c-4.874-0.021-8.205,4.49-8.86,7.194c-0.096,0.463-0.177,1.931-0.226,4.033l-0.075,20.526c0.028,1.569,0.096,2.654,0.192,3.003
			c0.049,0.159,0.122,0.331,0.206,0.505l-24.95,31.672c-2.272,2.908-1.55,7.277,1.625,9.787c3.187,2.499,7.618,2.185,9.904-0.702
			l30.518-38.763C71.623,117.994,71.787,116.425,71.316,114.834z"/>
		<path fill="#FFFFFF" d="M113.479,56.168l-10.463-12.219c-0.895-1.002-1.549-1.665-1.836-1.808
			c-0.021-0.011-0.046-0.02-0.066-0.031c-2.066-1.694-5.74-2.309-8.132-1.205L53.917,58.81c-3.345,1.536-4.724,5.713-3.058,9.31
			c1.645,3.605,5.728,5.276,9.064,3.761l30.039-13.797l8.8,10.303l2.39,2.771c2.184,2.71,8.45,3.058,12.354-0.272
			c3.898-3.345,3.633-9.044,2.396-11.522C115.691,58.947,114.797,57.786,113.479,56.168z"/>
		<path fill="#FFFFFF" d="M126.857,63.963c3.1,4.396,9.112,5.481,13.412,2.431l4.971-3.529c4.32-3.052,5.303-9.079,2.197-13.461
			l-2.026-2.874c-3.114-4.389-9.126-5.468-13.427-2.424l-4.996,3.522c-4.301,3.058-5.276,9.079-2.171,13.476L126.857,63.963z"/>
	</g>
</g>
<g id="sport-archery" display="none">
	<g display="inline">
		<path fill="#FFFFFF" d="M60.688,52.543h3.676c5.623,0,10.183-4.449,10.183-9.938v-6.352c0-5.487-4.56-9.938-10.183-9.938h-3.676
			c-5.626,0-10.185,4.45-10.185,9.938v6.352C50.503,48.094,55.062,52.543,60.688,52.543z"/>
		<path fill="#FFFFFF" d="M166.203,161.851l-27.926-20.73c17.179-23.25,22.956-46.74,23.171-67.508
			c2.55-1.396,4.301-4.24,4.301-7.532c0-3.639-2.141-6.731-5.135-7.921c-2.669-22.638-10.989-40.403-15.334-48.4l-3.191,1.734
			c4.163,7.664,12.087,24.572,14.792,46.137H96.744c-1.47-1.288-3.07-2.141-4.331-2.453c-0.544-0.132-2.254-0.217-4.717-0.266
			H50.864c-2.463,0.049-4.174,0.134-4.716,0.266c-3.154,0.78-8.447,4.898-8.447,10.938c0,6.041,5.086,11.354,9.174,11.261h40.508
			h4.305c1.876,0.043,3.957-1.062,5.664-2.844h60.44c-0.383,19.889-6.07,42.275-22.434,64.423l-15.534-11.532
			c-0.57-2.136-1.778-4.134-3.598-5.712l-23.454-17.41c-1.597-1.127-2.736-1.867-3.162-2.018c-2.468-0.872-8.554-0.929-12.127,3.887
			c-3.574,4.814-3.199,12.29-0.543,14.15l2.739,2.034c0,0,20.155,14.805,23.057,17.112c1.027,0.816,2.795,1.323,4.8,1.435
			l46.608,34.661c3.028,2.251,9.157,1.667,12.142-2.354C171.246,166.528,166.826,162.371,166.203,161.851z"/>
		<path fill="#FFFFFF" d="M166.202,161.851C166.115,161.777,166.104,161.776,166.202,161.851L166.202,161.851z"/>
		<polygon fill="#FFFFFF" points="166.202,161.851 166.203,161.851 166.204,161.852 		"/>
		<path fill="#FFFFFF" d="M57.727,171.164C57.705,171.06,57.698,171.052,57.727,171.164L57.727,171.164z"/>
		<polygon fill="#FFFFFF" points="57.727,171.164 57.727,171.165 57.729,171.172 		"/>
		<path fill="#FFFFFF" d="M66.035,102.294c-4.943-3.394-12.443-2.679-14.234,0.089l-1.965,2.859c0,0-14.292,21.024-16.525,24.063
			c-0.259,0.352-0.479,0.787-0.665,1.276c-1.093,1.573-1.539,3.438-1.075,5.252l9.396,38.036c0.954,3.732,5.821,7.303,10.33,6.15
			c7.509-1.923,6.589-8.072,6.43-8.855l-6.994-28.115c0.282-0.288,0.557-0.591,0.815-0.913l16.812-24.48
			c1.087-1.661,1.798-2.847,1.936-3.284C71.096,111.841,70.978,105.689,66.035,102.294z"/>
	</g>
</g>
<g id="sport-all" display="none">
	<g display="inline">
		<path fill="#FFFFFF" d="M82.966,94.312L6.043,5.152L5.828,54.91l55.542,64.378C64.542,108.127,72.538,99.005,82.966,94.312z"/>
		<path fill="#FFFFFF" d="M137.449,122.774L196,54.91l-0.217-49.758l-78.064,90.484C127.852,101.167,135.26,111.052,137.449,122.774
			z"/>
	</g>
	<circle display="inline" fill="#FFFFFF" cx="99.667" cy="131.001" r="35.008"/>
</g>
</svg>
